<?xml version="1.0" standalone="no"?>
<!DOCTYPE svg PUBLIC "-//W3C//DTD SVG 1.1//EN" "http://www.w3.org/Graphics/SVG/1.1/DTD/svg11.dtd" >
<svg xmlns="http://www.w3.org/2000/svg" xmlns:xlink="http://www.w3.org/1999/xlink" version="1.1">
<metadata>
Created by FontForge 20170731 at Fri Apr  9 21:10:38 2010
 By Aleksey,,,
Copyright Parisine (c)tm 1995-2010, Created by Jean Francois Porchez. Distributed exclusively by Porchez Typofonderie. All rights reserved. Signage typeface of the RATP, France. Parisine is a registered trademark of RATP.
</metadata>
<defs>
<font id="ParisineOfficeStd-Regular" horiz-adv-x="500" >
  <font-face 
    font-family="Parisine Office Std"
    font-weight="400"
    font-stretch="normal"
    units-per-em="1000"
    panose-1="2 11 5 3 5 0 0 2 0 4"
    ascent="800"
    descent="-200"
    x-height="466"
    cap-height="706"
    bbox="-123 -284 1230 938"
    underline-thickness="76"
    underline-position="-332"
    unicode-range="U+0020-FB04"
  />
<missing-glyph horiz-adv-x="374" 
d="M403 481q0 -28 -9.5 -52.5t-31.5 -48.5t-35.5 -36t-43.5 -36q0 -40 -5 -102h-53l-8 122q7 7 27 23t30.5 26t24.5 26t20 33t6 36q0 37 -23.5 62t-60.5 25q-62 0 -100 -53q-6 10 -17 28.5t-14 23.5q58 61 144 61q61 0 105 -37.5t44 -100.5zM297 119q0 -20 -12.5 -32
t-33.5 -12t-33.5 12t-12.5 32t12.5 32.5t33.5 12.5t33.5 -12.5t12.5 -32.5zM520 706v-706h-520v706h520zM34 672v-638h452v638h-452z" />
    <glyph glyph-name="f_f" unicode="ff" horiz-adv-x="602" 
d="M669 724l-27 -76q-36 25 -80 25q-49 0 -75.5 -31.5t-26.5 -81.5v-103h136v-71h-136v-386h-87v386h-201v-386h-88v386h-84v71h84v77q0 97 63 152t166 55q78 0 127 -32q47 42 119 42q64 0 110 -27zM172 533v-76h201v107q0 40 13 75q-30 25 -72 25q-142 0 -142 -131z" />
    <glyph glyph-name="fi" unicode="fi" horiz-adv-x="539" 
d="M373 0v386h-201v-386h-88v386h-84v71h84v87q0 97 63 152t166 55q98 0 159 -50l-31 -74q-56 47 -127 47q-142 0 -142 -131v-86h288v-457h-87z" />
    <glyph glyph-name="fl" unicode="fl" horiz-adv-x="542" 
d="M172 386v-386h-88v386h-84v71h84v91q0 96 59 149.5t171 53.5q83 0 146 -11v-645q0 -33 29 -33q10 0 25 5l7 -65q-29 -9 -61 -9q-87 0 -87 98v578q-28 5 -61 5q-74 0 -107 -32.5t-33 -96.5v-88h135v-71h-135z" />
    <glyph glyph-name="f_f_i" unicode="ffi" horiz-adv-x="828" 
d="M373 0v386h-201v-386h-88v386h-84v71h84v77q0 97 63 152t166 55q86 0 139 -38q59 48 149 48q99 0 160 -50l-31 -74q-57 47 -127 47q-71 0 -107 -34t-36 -97v-86h289v-457h-88v386h-201v-386h-87zM373 544q0 52 18 92q-31 28 -77 28q-142 0 -142 -131v-76h201v87z" />
    <glyph glyph-name="f_f_l" unicode="ffl" horiz-adv-x="831" 
d="M460 386v-386h-87v386h-201v-386h-88v386h-84v71h84v77q0 97 63 152t166 55q85 0 134 -37q56 47 156 47q83 0 146 -11v-645q0 -33 28 -33q11 0 26 5l7 -65q-29 -9 -61 -9q-88 0 -88 98v578q-28 5 -61 5q-140 0 -140 -129v-88h136v-71h-136zM172 533v-76h201v91
q0 50 16 89q-30 27 -75 27q-142 0 -142 -131z" />
    <glyph glyph-name=".notdef" horiz-adv-x="374" 
d="M403 481q0 -28 -9.5 -52.5t-31.5 -48.5t-35.5 -36t-43.5 -36q0 -40 -5 -102h-53l-8 122q7 7 27 23t30.5 26t24.5 26t20 33t6 36q0 37 -23.5 62t-60.5 25q-62 0 -100 -53q-6 10 -17 28.5t-14 23.5q58 61 144 61q61 0 105 -37.5t44 -100.5zM297 119q0 -20 -12.5 -32
t-33.5 -12t-33.5 12t-12.5 32t12.5 32.5t33.5 12.5t33.5 -12.5t12.5 -32.5zM520 706v-706h-520v706h520zM34 672v-638h452v638h-452z" />
    <glyph glyph-name=".null" horiz-adv-x="0" 
 />
    <glyph glyph-name="nonmarkingreturn" horiz-adv-x="333" 
 />
    <glyph glyph-name="space" unicode=" " horiz-adv-x="250" 
 />
    <glyph glyph-name="space" unicode="&#xa0;" horiz-adv-x="250" 
 />
    <glyph glyph-name="exclam" unicode="!" horiz-adv-x="270" 
d="M187 740q0 -100 -4 -240.5t-8 -231.5l-4 -91h-70q-16 339 -16 563h102zM197 54q0 -27 -17 -44t-44 -17q-28 0 -45.5 17t-17.5 44t17 43.5t45 16.5t45 -16.5t17 -43.5z" />
    <glyph glyph-name="quotedbl" unicode="&#x22;" horiz-adv-x="419" 
d="M338 740l-11 -255h-65l-11 255h87zM167 740l-11 -255h-65l-11 255h87z" />
    <glyph glyph-name="numbersign" unicode="#" 
d="M366 233l-2 -5h79l-15 -58h-80l-49 -170h-67l47 170h-116l-49 -170h-67l47 170h-89l16 58h89l35 129h-89l16 59h89l48 173h65l-45 -173h117l48 173h65l-45 -173h80l-15 -59h-81zM181 233l-2 -5h116l35 129h-117z" />
    <glyph glyph-name="dollar" unicode="$" 
d="M288 -82h-61v63q-14 0 -36 2q-84 7 -133 50l29 68q54 -48 140 -48v213q-78 31 -118 68t-40 106q0 63 44 107t114 55v68h61v-63q86 -5 141 -48l-31 -68q-42 39 -110 44v-200q153 -52 153 -175q0 -70 -43 -113.5t-110 -58.5v-70zM356 142q0 38 -17 59t-51 37v-177
q68 18 68 81zM154 454q0 -34 18.5 -54t54.5 -36v166q-36 -7 -54.5 -27t-18.5 -49z" />
    <glyph glyph-name="percent" unicode="%" horiz-adv-x="891" 
d="M695 706l-416 -706h-81l416 706h81zM857 230q0 -42 -7 -80.5t-23.5 -77t-50.5 -61.5t-82 -23t-82 23t-50.5 61.5t-23.5 76.5t-7 81q0 106 41 174.5t123 68.5q39 0 69 -15.5t47.5 -40t28 -58t14 -64.5t3.5 -65zM778 230q0 179 -84 179q-25 0 -43 -17.5t-26 -47.5t-11 -57
t-3 -57t3.5 -57.5t11.5 -57t26 -47.5t43 -18q40 0 61.5 51.5t21.5 128.5zM361 477q0 -42 -7 -80.5t-24 -77t-51 -61.5t-82 -23t-82 23t-50.5 61.5t-23.5 76.5t-7 81q0 106 41 174.5t123 68.5q49 0 83 -22.5t50.5 -61t23 -77t6.5 -82.5zM281 477q0 179 -84 179
q-25 0 -43 -17.5t-26 -47.5t-11 -57t-3 -57t3.5 -57.5t11.5 -57t26 -47.5t43 -18q40 0 61.5 51.5t21.5 128.5z" />
    <glyph glyph-name="ampersand" unicode="&#x26;" horiz-adv-x="746" 
d="M738 341l-120 -50q2 -14 2 -40q0 -125 -90 -197t-233 -72q-114 0 -187.5 56.5t-73.5 153.5q0 72 39.5 123t110.5 66v2q-47 16 -76 56t-29 96q0 89 61.5 140.5t152.5 51.5q113 0 192 -76l-42 -69q-52 64 -139 64q-58 0 -94 -32.5t-36 -85.5q0 -55 33.5 -84t87.5 -29h52
v-77h-54q-74 0 -118.5 -36.5t-44.5 -104.5q0 -65 49 -105t123 -40q105 0 171 52.5t66 136.5q0 13 -1 20l-137 -58l-25 71l335 139z" />
    <glyph glyph-name="quotesingle" unicode="'" horiz-adv-x="250" 
d="M168 740l-11 -255h-65l-11 255h87z" />
    <glyph glyph-name="parenleft" unicode="(" horiz-adv-x="280" 
d="M270 -170h-75q-162 186 -162 439q0 255 162 441h75q-76 -98 -115.5 -196t-39.5 -242q0 -145 39.5 -245t115.5 -197z" />
    <glyph glyph-name="parenright" unicode=")" horiz-adv-x="280" 
d="M248 269q0 -253 -162 -439h-76q76 98 116 198t40 244q0 143 -39.5 241t-116.5 197h76q162 -186 162 -441z" />
    <glyph glyph-name="asterisk" unicode="*" horiz-adv-x="406" 
d="M386 582l-134 -40l88 -120l-49 -35l-88 119l-89 -118l-50 34l89 120l-134 41l18 57l134 -43l-1 143h65v-143l134 42z" />
    <glyph glyph-name="plus" unicode="+" 
d="M480 233h-191v-189h-78v189h-192v79h192v190h77v-190h192v-79z" />
    <glyph glyph-name="comma" unicode="," horiz-adv-x="250" 
d="M184 54q0 -107 -87 -194h-78q80 98 80 180q0 34 -16 72h89q12 -31 12 -58z" />
    <glyph glyph-name="hyphen" unicode="-" horiz-adv-x="250" 
d="M240 191h-230v88h230v-88z" />
    <glyph glyph-name="period" unicode="." horiz-adv-x="250" 
d="M183 52q0 -26 -15.5 -42t-42.5 -16t-43 16t-16 42q0 25 16 41t43 16t42.5 -16t15.5 -41z" />
    <glyph glyph-name="slash" unicode="/" horiz-adv-x="250" 
d="M283 706l-240 -706h-76l240 706h76z" />
    <glyph glyph-name="zero" unicode="0" 
d="M479 295q0 -40 -5.5 -79.5t-21.5 -83t-40.5 -76t-66.5 -53.5t-96 -21q-67 0 -114.5 31t-71 81.5t-33.5 100t-10 100.5q0 134 60.5 223t170.5 89q55 0 97 -21t66.5 -52.5t39.5 -75.5t20 -82.5t5 -80.5zM386 295q0 28 -2 54t-10 61.5t-22 61t-40 43.5t-62 18
q-43 0 -72.5 -26.5t-42.5 -68t-18 -76t-5 -67.5t5 -67.5t18.5 -76.5t43 -68.5t71.5 -26.5q64 0 100 71.5t36 167.5z" />
    <glyph glyph-name="one" unicode="1" 
d="M443 0h-329v69h128v426q-52 -38 -156 -88l-30 68q111 50 200 114h76v-520h111v-69z" />
    <glyph glyph-name="two" unicode="2" 
d="M458 0h-392v62q6 51 49.5 100.5t125.5 109.5q52 37 81.5 72t29.5 80q0 50 -37 79t-89 29q-80 0 -136 -68l-49 58q82 85 200 85q84 0 144 -45t60 -127q0 -35 -11 -64.5t-35.5 -56.5t-44.5 -43.5t-58 -44.5q-58 -42 -92.5 -78t-39.5 -73h294v-75z" />
    <glyph glyph-name="three" unicode="3" 
d="M461 117q0 -93 -68.5 -154t-173.5 -61q-110 0 -180 67l39 66q54 -59 136 -59q69 0 112.5 39t43.5 101q0 63 -45 93.5t-112 30.5h-67v75h68q58 0 96.5 30t38.5 80q0 47 -34.5 78t-90.5 31q-83 0 -134 -62l-37 62q76 73 188 73q89 0 143.5 -48t54.5 -122q0 -53 -30 -93
t-84 -59v-2q61 -12 98.5 -56t37.5 -110z" />
    <glyph glyph-name="four" unicode="4" 
d="M292 589h95l-293 -441h206v202h86v-202h104v-71h-104v-159h-86v159h-290v82z" />
    <glyph glyph-name="five" unicode="5" 
d="M458 127q0 -97 -65 -161t-169 -64q-111 0 -183 66l41 66q55 -58 139 -58q62 0 103.5 38.5t41.5 104.5q0 68 -49.5 108.5t-139.5 41.5h-91l24 320h325v-74h-253l-13 -172h32q119 -4 188 -62t69 -154z" />
    <glyph glyph-name="six" unicode="6" 
d="M475 205q0 -95 -61.5 -158t-157.5 -63q-63 0 -109 24t-72 66.5t-38 94t-12 114.5q0 64 10.5 122t34.5 110.5t59 90.5t86.5 60.5t114.5 22.5q55 0 97 -15l-17 -76q-36 18 -88 18q-96 0 -150 -79.5t-58 -195.5q65 63 158 63q90 0 146.5 -53.5t56.5 -145.5zM388 196
q0 61 -37.5 99.5t-100.5 38.5q-45 0 -78.5 -18.5t-50.5 -41.5q-8 -12 -8 -45q0 -71 36 -123t105 -52q59 0 96.5 41.5t37.5 100.5z" />
    <glyph glyph-name="seven" unicode="7" 
d="M473 516q-144 -264 -200.5 -388t-56.5 -210h-97q0 108 81 258l181 338h-355v75h447v-73z" />
    <glyph glyph-name="eight" unicode="8" 
d="M469 179q0 -90 -62.5 -143.5t-159.5 -53.5q-96 0 -156 51t-60 132q0 120 138 190q-57 32 -88 69t-31 91q0 79 60 127.5t144 48.5t140 -42t56 -120q0 -100 -119 -166q138 -64 138 -184zM368 524q0 47 -32 73.5t-83 26.5q-58 0 -88 -29t-30 -71q0 -45 33.5 -75t92.5 -56
q107 52 107 131zM380 174q0 50 -36.5 85t-103.5 65q-53 -24 -87.5 -62t-34.5 -89q0 -54 37 -88.5t94 -34.5q60 0 95.5 34.5t35.5 89.5z" />
    <glyph glyph-name="nine" unicode="9" 
d="M475 308q0 -81 -17.5 -151.5t-53 -129t-95.5 -92t-139 -33.5q-54 0 -97 15l18 76q34 -18 87 -18q96 0 150 79.5t58 195.5q-63 -63 -158 -63q-89 0 -146 54t-57 145q0 94 62 157.5t157 63.5q63 0 109 -24t72 -66.5t38 -94t12 -114.5zM387 362q0 71 -36 123t-105 52
q-59 0 -96 -41.5t-37 -100.5q0 -62 37 -100t101 -38q45 0 78 18.5t50 41.5q8 14 8 45z" />
    <glyph glyph-name="colon" unicode=":" horiz-adv-x="250" 
d="M184 52q0 -26 -15.5 -42t-42.5 -16t-43 16t-16 42q0 25 16 41t43 16t42.5 -16t15.5 -41zM183 426q0 -26 -15.5 -42t-42.5 -16t-43 16t-16 42q0 25 16 41t43 16t42.5 -16t15.5 -41z" />
    <glyph glyph-name="semicolon" unicode=";" horiz-adv-x="250" 
d="M184 54q0 -107 -87 -194h-78q80 98 80 180q0 34 -16 72h89q12 -31 12 -58zM184 426q0 -26 -16 -42t-43 -16t-43 16t-16 42q0 25 16 41t43 16t43 -16t16 -41z" />
    <glyph glyph-name="less" unicode="&#x3c;" 
d="M480 40l-461 192v78l461 191v-90l-358 -140l358 -140v-91z" />
    <glyph glyph-name="equal" unicode="=" 
d="M480 352h-461v78h461v-78zM480 115h-461v78h461v-78z" />
    <glyph glyph-name="greater" unicode="&#x3e;" 
d="M480 232l-461 -192v91l358 140l-358 139v91l461 -192v-77z" />
    <glyph glyph-name="question" unicode="?" horiz-adv-x="497" 
d="M445 560q0 -82 -70 -155q-20 -22 -97 -87q-1 -16 -4 -74t-4 -67h-69l-10 168q78 65 89 76q61 61 61 126q0 52 -33.5 87t-87.5 35q-89 0 -139 -72l-40 69q80 83 199 83q85 0 145 -51t60 -138zM296 54q0 -27 -16.5 -44t-44.5 -17t-45 17t-17 44t17 43.5t45 16.5t44.5 -16.5
t16.5 -43.5z" />
    <glyph glyph-name="at" unicode="@" horiz-adv-x="722" 
d="M694 294q0 -114 -44 -178t-120 -64q-73 0 -79 58q-48 -65 -132 -65q-51 0 -86 32t-35 81q0 133 205 133q27 0 34 2t7 9v36q0 39 -23 62.5t-71 23.5q-63 0 -108 -42l-27 54q63 47 149 47q72 0 114.5 -36.5t42.5 -106.5v-203q0 -27 21 -27q39 0 63.5 40.5t24.5 129.5
q0 130 -69.5 212t-196.5 82q-69 0 -122.5 -26.5t-85 -72t-47 -100t-15.5 -116.5q0 -147 76 -232t221 -85q133 0 219 70l26 -53q-47 -36 -114 -54.5t-133 -18.5q-175 0 -269 100t-94 273q0 92 28 164.5t76.5 116.5t108.5 67t127 23q149 0 238.5 -93t89.5 -243zM444 182v62
q-6 0 -19 0.5t-19 0.5q-132 0 -132 -81q0 -27 20 -46t51 -19q50 0 85 46q14 20 14 37z" />
    <glyph glyph-name="A" unicode="A" horiz-adv-x="618" 
d="M615 0h-105l-64 180h-283l-62 -180h-98l251 708h107zM420 259l-79 229q-28 82 -35 124h-3q-7 -41 -36 -125l-77 -228h230z" />
    <glyph glyph-name="B" unicode="B" horiz-adv-x="611" 
d="M567 218q0 -63 -25 -108t-68.5 -68t-90 -32.5t-101.5 -9.5h-203v706h210q255 0 255 -173q0 -52 -35.5 -92t-83.5 -52v-2q57 -8 99.5 -52.5t42.5 -116.5zM447 522q0 36 -16.5 58.5t-47 31.5t-53.5 11.5t-57 2.5h-95v-211h115q63 0 108.5 24.5t45.5 82.5zM466 219
q0 35 -16 60t-42.5 37t-53.5 17.5t-58 5.5h-118v-259h100q188 0 188 139z" />
    <glyph glyph-name="C" unicode="C" horiz-adv-x="604" 
d="M571 51q-38 -30 -93 -49t-110 -19q-155 0 -244.5 103.5t-89.5 258.5q0 72 20.5 138.5t60 121.5t105 87.5t147.5 32.5q126 0 203 -65l-40 -80q-70 58 -158 58q-60 0 -107 -26t-74.5 -68.5t-41 -92.5t-13.5 -104q0 -119 67.5 -198t175.5 -79q91 0 158 58z" />
    <glyph glyph-name="D" unicode="D" horiz-adv-x="708" 
d="M674 369q0 -369 -420 -369h-175v706h179q61 0 111.5 -6t110 -26.5t99.5 -55.5t67.5 -99t27.5 -150zM573 363q0 260 -303 260h-92v-541h94q301 0 301 281z" />
    <glyph glyph-name="E" unicode="E" horiz-adv-x="538" 
d="M485 0h-406v706h391v-85h-292v-206h282v-82h-282v-248h307v-85z" />
    <glyph glyph-name="F" unicode="F" horiz-adv-x="534" 
d="M484 621h-306v-221h296v-83h-296v-317h-99v706h405v-85z" />
    <glyph glyph-name="G" unicode="G" horiz-adv-x="668" 
d="M597 23q-105 -40 -223 -40q-165 0 -252.5 100.5t-87.5 266.5q0 101 37 184t117 137t191 54q127 0 213 -67l-37 -78q-73 61 -170 61q-120 0 -184.5 -83.5t-64.5 -206.5q0 -130 64 -208.5t179 -78.5q65 0 123 17v168h-149v85h244v-311z" />
    <glyph glyph-name="H" unicode="H" horiz-adv-x="710" 
d="M630 0h-99v332h-352v-332h-99v706h99v-289h352v289h99v-706z" />
    <glyph glyph-name="I" unicode="I" horiz-adv-x="266" 
d="M182 0h-99v706h99v-706z" />
    <glyph glyph-name="J" unicode="J" horiz-adv-x="273" 
d="M189 43q0 -69 -22.5 -124.5t-78.5 -94t-139 -38.5q-20 0 -32 1l4 78q6 -1 18 -1q74 0 113 50t39 137v655h98v-663z" />
    <glyph glyph-name="K" unicode="K" horiz-adv-x="609" 
d="M178 233v-233h-99v706h99v-358l294 358h116l-256 -296q86 -160 166 -281q25 -37 39.5 -49t32.5 -12q12 0 24 5l6 -71q-26 -9 -62 -9q-40 0 -67.5 20t-57.5 65q-44 66 -149 254z" />
    <glyph glyph-name="L" unicode="L" horiz-adv-x="502" 
d="M492 0h-413v706h99v-621h314v-85z" />
    <glyph glyph-name="M" unicode="M" horiz-adv-x="818" 
d="M754 0h-98l-18 434q-2 47 -2 125h-2q-24 -68 -55 -142l-123 -295h-101l-124 294q-37 91 -51 143h-2q3 -38 1 -124l-13 -435h-87l20 706h121l138 -341q33 -80 57 -150h1q17 51 57 151l135 340h118z" />
    <glyph glyph-name="N" unicode="N" horiz-adv-x="721" 
d="M641 0h-91l-307 435q-45 62 -70 115h-2v-550h-92v706h94l294 -426q68 -100 80 -132h3v558h91v-706z" />
    <glyph glyph-name="O" unicode="O" horiz-adv-x="702" 
d="M668 354q0 -78 -18.5 -142t-49.5 -106t-72.5 -71t-85.5 -41.5t-91 -12.5q-145 0 -231 98.5t-86 274.5q0 78 18.5 142t49.5 106t72.5 71t85.5 41.5t91 12.5q145 0 231 -98.5t86 -274.5zM566 354q0 122 -53 205t-162 83q-57 0 -100 -24t-67.5 -65t-36 -91t-11.5 -108
q0 -78 20 -140.5t70 -105t125 -42.5t125 42.5t70 104.5t20 141z" />
    <glyph glyph-name="P" unicode="P" horiz-adv-x="566" 
d="M536 494q0 -55 -17.5 -96.5t-44.5 -66.5t-65.5 -40.5t-76 -21t-80.5 -5.5h-74v-264h-99v706h172q285 0 285 -212zM437 488q0 137 -181 137h-78v-278h74q185 0 185 141z" />
    <glyph glyph-name="Q" unicode="Q" horiz-adv-x="702" 
d="M668 353q0 -139 -55.5 -226t-144.5 -123q82 -99 206 -170l-81 -49q-118 72 -205 199q-18 -3 -37 -3q-145 0 -231 98.5t-86 274.5q0 97 28 171t74.5 116.5t101 63.5t113.5 21q145 0 231 -98.5t86 -274.5zM566 353q0 122 -53 205t-162 83q-110 0 -162.5 -82t-52.5 -205
q0 -78 20 -140.5t70 -105t125 -42.5t125 42.5t70 104.5t20 140z" />
    <glyph glyph-name="R" unicode="R" horiz-adv-x="613" 
d="M602 0h-118q-37 52 -86 155q-39 80 -69.5 114t-82.5 34h-68v-303h-99v706h184q133 0 203 -45t70 -149q0 -70 -40.5 -115.5t-105.5 -65.5v-2q25 -19 45 -44.5t31 -45t31 -60.5q51 -105 105 -179zM434 507q0 38 -16.5 63.5t-46 36.5t-56 14.5t-60.5 3.5h-77v-243h66
q28 0 49 1.5t49.5 9t47 20t31.5 37t13 57.5z" />
    <glyph glyph-name="S" unicode="S" horiz-adv-x="512" 
d="M470 196q0 -104 -71.5 -158.5t-173.5 -54.5q-113 0 -188 61l36 77q66 -56 158 -56q59 0 100.5 29.5t41.5 87.5q0 48 -27.5 74.5t-80.5 49.5l-63 27q-72 32 -111.5 75.5t-39.5 116.5q0 88 64 144t163 56q106 0 178 -56l-36 -76q-58 52 -143 52q-64 0 -97 -32.5t-33 -77.5
q0 -42 26.5 -67.5t73.5 -45.5l62 -27q78 -34 119.5 -78t41.5 -121z" />
    <glyph glyph-name="T" unicode="T" horiz-adv-x="574" 
d="M567 621h-231v-621h-99v621h-230v85h560v-85z" />
    <glyph glyph-name="U" unicode="U" horiz-adv-x="716" 
d="M637 6q-127 -24 -229 -24q-334 0 -334 298v426h98v-435q0 -102 64 -155t183 -53q68 0 122 13v630h96v-700z" />
    <glyph glyph-name="V" unicode="V" horiz-adv-x="610" 
d="M607 706l-252 -708h-103l-250 708h105l145 -425q29 -87 53 -179h2q30 105 54 177l148 427h98z" />
    <glyph glyph-name="W" unicode="W" horiz-adv-x="835" 
d="M810 706l-144 -708h-104l-122 401q-18 67 -24 104h-2q-5 -38 -24 -103l-120 -402h-104l-141 708h100l85 -454q12 -63 19 -123h3q6 43 27 113l108 367h109l103 -349q23 -77 32 -133h3q6 58 23 142l81 437h92z" />
    <glyph glyph-name="X" unicode="X" horiz-adv-x="552" 
d="M547 0h-118l-155 288l-160 -288h-109l214 362l-199 344h117l143 -271l146 271h109l-201 -341z" />
    <glyph glyph-name="Y" unicode="Y" horiz-adv-x="540" 
d="M538 706l-212 -438v-268h-98v267l-226 439h116l161 -347l153 347h106z" />
    <glyph glyph-name="Z" unicode="Z" horiz-adv-x="549" 
d="M521 0h-491v78l371 543h-360v85h478v-76l-372 -545h374v-85z" />
    <glyph glyph-name="bracketleft" unicode="[" horiz-adv-x="280" 
d="M270 -170h-189v880h189v-60h-110v-760h110v-60z" />
    <glyph glyph-name="backslash" unicode="\" horiz-adv-x="250" 
d="M283 0h-75l-241 706h77z" />
    <glyph glyph-name="bracketright" unicode="]" horiz-adv-x="280" 
d="M200 -170h-190v60h112v760h-112v60h190v-880z" />
    <glyph glyph-name="asciicircum" unicode="^" 
d="M467 184h-89l-129 308l-129 -308h-88l179 405h77z" />
    <glyph glyph-name="underscore" unicode="_" 
d="M500 -215h-500v73h500v-73z" />
    <glyph glyph-name="grave" unicode="`" 
d="M362 531h-73l-152 175h108z" />
    <glyph glyph-name="grave" unicode="&#x300;" 
d="M362 531h-73l-152 175h108z" />
    <glyph glyph-name="grave" unicode="&#x2cb;" 
d="M362 531h-73l-152 175h108z" />
    <glyph glyph-name="a" unicode="a" horiz-adv-x="483" 
d="M462 2q-27 -9 -61 -9q-73 0 -76 70q-60 -76 -147 -76q-61 0 -100 37t-39 93q0 154 237 154q27 0 35 2.5t8 12.5v31q0 40 -24.5 65t-76.5 25q-73 0 -120 -49l-35 68q68 55 175 55q69 0 116.5 -37.5t47.5 -119.5v-230q0 -32 28 -32q10 0 25 5zM318 154v53h-46
q-28 0 -49.5 -2.5t-45.5 -10t-37 -25.5t-13 -45q0 -30 21 -47.5t57 -17.5q56 0 93 43q20 23 20 52z" />
    <glyph glyph-name="b" unicode="b" horiz-adv-x="503" 
d="M470 241q0 -103 -54 -179t-153 -76q-71 0 -106 38v-24h-85v740h88v-342q55 83 136 83t127.5 -69t46.5 -171zM379 226q0 75 -29 124t-86 49q-49 0 -84 -45q-20 -22 -20 -57v-176q0 -29 22.5 -47.5t65.5 -18.5q65 0 98 48t33 123z" />
    <glyph glyph-name="c" unicode="c" horiz-adv-x="422" 
d="M398 34q-22 -21 -61.5 -34.5t-80.5 -13.5q-105 0 -164 68.5t-59 172.5q0 66 22 121.5t73.5 94t126.5 38.5q93 0 142 -46l-36 -77q-40 42 -101 42q-67 0 -101.5 -48t-34.5 -123q0 -72 39.5 -117.5t101.5 -45.5q59 0 102 38z" />
    <glyph glyph-name="d" unicode="d" horiz-adv-x="508" 
d="M344 169v176q0 29 -23.5 47t-68.5 18q-65 0 -96.5 -45t-31.5 -118q0 -77 28.5 -128t87.5 -51q47 0 83 44q21 23 21 57zM349 73q-55 -87 -138 -87t-130.5 72.5t-47.5 174.5q0 104 54 176t153 72q71 0 104 -37v296h87v-631q0 -45 27 -45q11 0 22 4l6 -65q-22 -10 -52 -10
q-81 0 -85 80z" />
    <glyph glyph-name="e" unicode="e" horiz-adv-x="474" 
d="M438 273q0 -33 -1 -45h-316v-14q0 -68 42.5 -109.5t117.5 -41.5q67 0 118 40l29 -70q-69 -47 -163 -47q-110 0 -171 68.5t-61 175.5q0 101 54.5 176t157.5 75q96 0 144.5 -60.5t48.5 -147.5zM355 295q0 47 -30 82.5t-84 35.5q-56 0 -86.5 -35.5t-33.5 -82.5h234z" />
    <glyph glyph-name="f" unicode="f" horiz-adv-x="313" 
d="M380 724l-27 -76q-36 25 -79 25q-49 0 -75.5 -31t-26.5 -82v-103h135v-71h-135v-386h-88v386h-84v71h84v107q0 76 49 131.5t137 55.5q64 0 110 -27z" />
    <glyph glyph-name="g" unicode="g" horiz-adv-x="459" 
d="M224 480q55 0 91 -21q15 77 93 77q26 0 48 -9l-12 -71q-17 9 -34 9q-42 0 -49 -43q35 -44 35 -106q0 -69 -45.5 -117t-127.5 -48q-32 0 -62 10q-15 5 -27 -4q-19 -14 -19 -41q0 -19 13 -31t36 -12h157q57 0 95 -32.5t38 -93.5q0 -78 -69 -120t-159 -42q-99 0 -152 33.5
t-53 94.5q0 38 21 64t49 35v2q-19 7 -34.5 30.5t-15.5 50.5q0 63 60 96q-50 45 -50 125q0 70 46 117t127 47zM363 -68q0 31 -19.5 45.5t-48.5 14.5h-141q-24 0 -37.5 -16.5t-13.5 -44.5q0 -78 126 -78q60 0 97 19.5t37 59.5zM311 317q0 41 -21 69.5t-66 28.5t-66 -28.5
t-21 -70.5t21 -71t65 -29q50 0 69 32t19 69z" />
    <glyph glyph-name="h" unicode="h" horiz-adv-x="537" 
d="M464 0h-88v301q0 98 -96 98q-53 0 -94 -46q-14 -15 -18 -26.5t-4 -32.5v-294h-88v740h88v-337q60 78 146 78q74 0 114 -42t40 -115v-324z" />
    <glyph glyph-name="i" unicode="i" horiz-adv-x="260" 
d="M184 674q0 -22 -15 -36.5t-39 -14.5t-39 14.5t-15 36.5t15 36.5t39 14.5t39 -14.5t15 -36.5zM173 0h-88v466h88v-466z" />
    <glyph glyph-name="j" unicode="j" horiz-adv-x="260" 
d="M184 674q0 -22 -15 -36.5t-39 -14.5t-39 14.5t-15 36.5t15 36.5t39 14.5t39 -14.5t15 -36.5zM174 6q0 -93 -43.5 -151t-152.5 -69l-9 74q61 7 89 43.5t28 109.5v453h88v-460z" />
    <glyph glyph-name="k" unicode="k" horiz-adv-x="464" 
d="M165 156v-156h-88v740h88v-488l172 214h102l-168 -190q48 -91 92 -153q24 -36 38.5 -48.5t30.5 -12.5q12 0 22 5l6 -65q-21 -9 -52 -9q-34 0 -65.5 27t-51.5 57t-71 118q-1 2 -2 3t-2 3t-2 3.5t-2 3.5z" />
    <glyph glyph-name="l" unicode="l" horiz-adv-x="249" 
d="M164 740v-645q0 -33 28 -33q11 0 26 5l7 -65q-29 -9 -61 -9q-88 0 -88 98v649h88z" />
    <glyph glyph-name="m" unicode="m" horiz-adv-x="811" 
d="M738 0h-88v301q0 47 -23 72.5t-68 25.5q-53 0 -88 -45q-20 -23 -20 -60v-294h-88v301q0 47 -23 72.5t-68 25.5q-55 0 -88 -45q-20 -23 -20 -60v-294h-88v466h82v-69q29 41 62 62.5t81 21.5q104 0 138 -91q61 91 150 91q70 0 109.5 -42t39.5 -115v-324z" />
    <glyph glyph-name="n" unicode="n" horiz-adv-x="543" 
d="M470 0h-88v301q0 98 -98 98q-59 0 -97 -46q-15 -15 -19 -26t-4 -33v-294h-88v466h87v-71q61 86 153 86q75 0 114.5 -41.5t39.5 -115.5v-324z" />
    <glyph glyph-name="o" unicode="o" horiz-adv-x="494" 
d="M461 234q0 -105 -56.5 -178t-159.5 -73q-104 0 -158 72t-54 179q0 106 56 177.5t160 71.5t158 -71t54 -178zM369 233q0 72 -28 123t-92 51t-94.5 -51t-30.5 -121q0 -45 10 -82.5t38.5 -65.5t72.5 -28q64 0 94 52t30 122z" />
    <glyph glyph-name="p" unicode="p" horiz-adv-x="507" 
d="M158 392q58 89 142 89q81 0 127.5 -69t46.5 -171q0 -103 -54 -179t-153 -76q-30 0 -60 9.5t-43 26.5v-232h-88v566q0 46 -26 46q-10 0 -22 -5l-7 65q24 11 53 11q83 0 84 -81zM383 226q0 76 -28.5 124.5t-85.5 48.5q-51 0 -85 -45q-20 -22 -20 -57v-176q0 -29 23 -47.5
t66 -18.5q64 0 97 48t33 123z" />
    <glyph glyph-name="q" unicode="q" horiz-adv-x="514" 
d="M443 -210h-88v278q-59 -82 -139 -82q-86 0 -134.5 72t-48.5 174q0 104 55.5 176.5t158.5 72.5q76 0 110 -40v25h86v-676zM355 168v176q0 30 -24.5 47.5t-72.5 17.5q-69 0 -101.5 -45t-32.5 -118q0 -77 30 -128t92 -51q51 0 87 44q22 24 22 57z" />
    <glyph glyph-name="r" unicode="r" horiz-adv-x="335" 
d="M151 391q57 87 133 87q24 0 46 -8l-25 -92q-18 11 -46 11q-43 0 -78 -40q-17 -19 -17 -56v-293h-88v356q0 46 -26 46q-10 0 -22 -5l-7 65q24 11 50 11q77 0 80 -82z" />
    <glyph glyph-name="s" unicode="s" horiz-adv-x="373" 
d="M342 130q0 -65 -51 -105t-131 -40q-85 0 -137 43l32 69q47 -39 111 -39q92 0 92 61q0 30 -23 46.5t-80 35.5q-60 21 -90.5 53t-30.5 83q0 59 46.5 101.5t124.5 42.5q75 0 126 -40l-32 -69q-41 35 -99 35q-42 0 -63 -16t-21 -42t21 -40.5t68 -31.5q69 -23 103 -56t34 -91z
" />
    <glyph glyph-name="t" unicode="t" horiz-adv-x="323" 
d="M319 0q-41 -15 -103 -15q-61 0 -96.5 34t-35.5 96v271h-84v71h85v101l87 28v-129h135v-71h-135v-254q0 -73 73 -73q33 0 61 13z" />
    <glyph glyph-name="u" unicode="u" horiz-adv-x="526" 
d="M369 72q-65 -86 -146 -86q-71 0 -110 41.5t-39 115.5v323h88v-301q0 -46 23.5 -71.5t67.5 -25.5q55 0 88 45q22 24 22 58v295h88v-357q0 -45 26 -45q12 0 21 4l7 -65q-22 -10 -53 -10q-79 0 -83 79z" />
    <glyph glyph-name="v" unicode="v" horiz-adv-x="420" 
d="M420 466l-165 -468h-90l-165 468h97l83 -267q15 -50 34 -121h2q28 97 36 123l84 265h84z" />
    <glyph glyph-name="w" unicode="w" horiz-adv-x="639" 
d="M619 466l-110 -468h-93l-76 272q-18 65 -21 95h-2q-7 -39 -23 -95l-76 -272h-92l-106 468h90l53 -271q13 -63 17 -100h2q5 31 23 98l73 273h86l74 -278q13 -50 21 -95h2q3 30 17 96l57 277h84z" />
    <glyph glyph-name="x" unicode="x" horiz-adv-x="418" 
d="M411 0h-105l-103 176l-99 -176h-96l150 238l-143 228h103l98 -172l98 172h92l-144 -227z" />
    <glyph glyph-name="y" unicode="y" horiz-adv-x="422" 
d="M422 466l-176 -514q-58 -167 -184 -167q-51 0 -95 22l26 75q33 -21 67 -21q73 0 103 87l11 33l-174 485h97l88 -279q10 -30 21.5 -71t12.5 -43h1q24 83 35 116l83 277h84z" />
    <glyph glyph-name="z" unicode="z" horiz-adv-x="401" 
d="M381 0h-358v77l247 316h-235v73h334v-80l-243 -312h255v-74z" />
    <glyph glyph-name="braceleft" unicode="{" horiz-adv-x="334" 
d="M324 -170q-107 0 -150 38.5t-43 113.5v132q0 60 -26.5 94t-74.5 34v56q47 0 74 34.5t27 93.5v132q0 76 42.5 114t150.5 38v-59q-62 0 -89 -26.5t-27 -85.5v-122q0 -58 -28 -96.5t-74 -50.5q46 -13 74 -51t28 -96v-121q0 -59 27 -86t89 -27v-59z" />
    <glyph glyph-name="bar" unicode="|" horiz-adv-x="250" 
d="M162 -216h-74v1000h74v-1000z" />
    <glyph glyph-name="braceright" unicode="}" horiz-adv-x="334" 
d="M305 242q-48 0 -74.5 -34t-26.5 -94v-132q0 -75 -43 -113.5t-151 -38.5v59q63 0 90.5 27t27.5 86v121q0 58 27.5 96.5t73.5 50.5q-45 13 -73 51t-28 96v122q0 58 -27.5 85t-90.5 27v59q108 0 150.5 -38t42.5 -114v-132q0 -59 27 -93.5t75 -34.5v-56z" />
    <glyph glyph-name="asciitilde" unicode="~" 
d="M474 256q-50 -55 -116 -55q-38 0 -110 32t-106 32q-63 0 -117 -64v87q48 55 116 55q39 0 110.5 -32.5t105.5 -32.5q62 0 117 64v-86z" />
    <glyph glyph-name="exclamdown" unicode="&#xa1;" horiz-adv-x="270" 
d="M196 412q0 -27 -17 -43.5t-45 -16.5t-44.5 17t-16.5 43q0 27 16.5 43.5t44.5 16.5t45 -16.5t17 -43.5zM185 -274h-103q0 100 4 240.5t8 231.5l5 91h69q17 -339 17 -563z" />
    <glyph glyph-name="cent" unicode="&#xa2;" 
d="M320 -82h-61v67q-104 15 -165.5 99.5t-61.5 202.5q0 117 60 209t167 108v66h61v-64q88 -5 146 -54l-33 -70q-54 44 -113 48v-473q67 1 118 49l30 -68q-65 -50 -148 -56v-64zM124 289q0 -83 36.5 -144t98.5 -80v459q-67 -19 -101 -86t-34 -149z" />
    <glyph glyph-name="sterling" unicode="&#xa3;" 
d="M27 271v63h78q-23 50 -23 93q0 70 54.5 125t148.5 55q97 0 158 -59l-38 -61q-46 48 -114 48q-63 0 -93 -32t-30 -74q0 -38 31 -95h193v-63h-160q18 -38 18 -71q0 -41 -17 -69.5t-56 -56.5v-2h290v-72h-408v68q108 46 108 120q0 29 -28 83h-112z" />
    <glyph glyph-name="currency" unicode="&#xa4;" 
d="M384 271q0 -35 -15 -64l98 -98l-54 -56l-97 96q-29 -17 -65 -17t-66 19l-99 -99l-55 57l102 100q-15 27 -15 62q0 34 14 62l-100 101l55 56l98 -98q31 18 66 18t64 -18l99 99l54 -56l-99 -99q15 -30 15 -65zM325 271q0 36 -21 60t-54 24t-53.5 -24t-20.5 -60
q0 -37 20.5 -60.5t53.5 -23.5t54 24t21 60z" />
    <glyph glyph-name="yen" unicode="&#xa5;" 
d="M72 241v62h107l-152 286h105l128 -271l118 271h94l-144 -286h99v-62h-126v-74h126v-62h-126v-105h-91v105h-138v62h138v74h-138z" />
    <glyph glyph-name="brokenbar" unicode="&#xa6;" horiz-adv-x="250" 
d="M170 405h-82v266h82v-266zM170 0h-82v266h82v-266z" />
    <glyph glyph-name="section" unicode="&#xa7;" 
d="M478 218q0 -85 -68 -139q33 -41 33 -104q0 -89 -65 -139.5t-153 -50.5q-108 0 -183 59l35 75q65 -55 148 -55q50 0 90.5 26t40.5 79q0 42 -23 65t-72 48l-114 57q-126 62 -126 173q0 41 20.5 78.5t52.5 60.5q-32 40 -32 98q0 82 61 129t146 47q103 0 173 -54l-35 -73
q-56 50 -137 50q-55 0 -88.5 -26.5t-33.5 -70.5q0 -64 88 -102l100 -43q69 -30 105.5 -74t36.5 -114zM397 207q-1 53 -28 82t-82 53l-74 32q-48 22 -69 39q-42 -36 -42 -92q0 -44 25 -70.5t72 -48.5l83 -40q52 -25 77 -46q38 40 38 91z" />
    <glyph glyph-name="dieresis" unicode="&#xa8;" 
d="M410 658q0 -23 -15 -37.5t-39 -14.5q-25 0 -40 14.5t-15 37.5q0 24 15 38.5t40 14.5q24 0 39 -15t15 -38zM199 658q0 -23 -14.5 -37.5t-39.5 -14.5t-40 14.5t-15 37.5q0 24 15 38.5t40 14.5t39.5 -14.5t14.5 -38.5z" />
    <glyph glyph-name="dieresis" unicode="&#x308;" 
d="M410 658q0 -23 -15 -37.5t-39 -14.5q-25 0 -40 14.5t-15 37.5q0 24 15 38.5t40 14.5q24 0 39 -15t15 -38zM199 658q0 -23 -14.5 -37.5t-39.5 -14.5t-40 14.5t-15 37.5q0 24 15 38.5t40 14.5t39.5 -14.5t14.5 -38.5z" />
    <glyph glyph-name="copyright" unicode="&#xa9;" horiz-adv-x="827" 
d="M791 354q0 -161 -107.5 -268.5t-269.5 -107.5q-163 0 -270.5 107t-107.5 269q0 156 107.5 266t270.5 110q162 0 269.5 -110.5t107.5 -265.5zM733 354q0 139 -93 231.5t-226 92.5q-134 0 -227 -92.5t-93 -231.5q0 -141 92.5 -233.5t227.5 -92.5t227 93t92 233zM573 155
q-59 -50 -145 -50q-105 0 -167 68.5t-62 173.5q0 107 63 181t173 74q84 0 136 -49l-27 -57q-40 43 -104 43q-77 0 -120 -56t-43 -134q0 -77 45 -130t120 -53q62 0 105 45z" />
    <glyph glyph-name="ordfeminine" unicode="&#xaa;" horiz-adv-x="348" 
d="M339 294q-19 -7 -43 -7q-56 0 -61 51q-42 -55 -108 -55q-43 0 -71.5 27.5t-28.5 70.5q0 111 172 111q19 0 25 2t6 9v28q0 60 -73 60q-53 0 -89 -33l-25 54q53 37 130 37q55 0 92 -27.5t37 -89.5v-169q0 -22 17 -22q7 0 15 3zM229 403v43h-31q-97 0 -97 -59
q0 -21 14.5 -35.5t38.5 -14.5q35 0 62 30q13 14 13 36z" />
    <glyph glyph-name="guillemotleft" unicode="&#xab;" horiz-adv-x="476" 
d="M459 35h-79l-152 194l152 194h79l-132 -194zM248 35h-80l-151 194l151 194h80l-133 -194z" />
    <glyph glyph-name="logicalnot" unicode="&#xac;" 
d="M480 24h-78v208h-383v79h461v-287z" />
    <glyph glyph-name="registered" unicode="&#xae;" horiz-adv-x="827" 
d="M791 354q0 -161 -107.5 -268.5t-269.5 -107.5q-163 0 -270.5 107t-107.5 269q0 156 107.5 266t270.5 110q162 0 269.5 -110.5t107.5 -265.5zM733 354q0 139 -93 231.5t-226 92.5q-134 0 -227 -92.5t-93 -231.5q0 -141 92.5 -233.5t227.5 -92.5t227 93t92 233zM614 124
h-87l-117 177q-12 19 -30 19h-48v-196h-73v464h128q188 0 188 -130q0 -47 -29.5 -78.5t-78.5 -42.5q85 -131 147 -213zM500 453q0 26 -11 43.5t-31.5 24.5t-38 9.5t-41.5 2.5h-46v-165h47q121 0 121 85z" />
    <glyph glyph-name="macron" unicode="&#xaf;" 
d="M391 637h-282v65h282v-65z" />
    <glyph glyph-name="macron" unicode="&#x304;" 
d="M391 637h-282v65h282v-65z" />
    <glyph glyph-name="macron" unicode="&#x2c9;" 
d="M391 637h-282v65h282v-65z" />
    <glyph glyph-name="degree" unicode="&#xb0;" horiz-adv-x="366" 
d="M316 550q0 -59 -37.5 -99t-95.5 -40q-57 0 -95 40.5t-38 98.5q0 59 38 99t95 40t95 -40.5t38 -98.5zM254 550q0 36 -20 61t-52 25q-33 0 -52.5 -25t-19.5 -61q0 -37 19.5 -61t52.5 -24q32 0 52 24t20 61z" />
    <glyph glyph-name="plusminus" unicode="&#xb1;" 
d="M480 233h-191v-102h-78v102h-192v79h192v171h77v-171h192v-79zM480 0h-461v78h461v-78z" />
    <glyph glyph-name="twosuperior" unicode="&#xb2;" horiz-adv-x="357" 
d="M323 293h-284v52q5 38 34.5 74t84.5 83q73 63 73 116q0 37 -24 59t-59 22q-51 0 -89 -47l-36 54q57 58 143 58q61 0 104.5 -36t43.5 -101q0 -35 -17 -67t-34 -49.5t-52 -46.5q-78 -68 -85 -107h197v-64z" />
    <glyph glyph-name="threesuperior" unicode="&#xb3;" horiz-adv-x="357" 
d="M322 429q0 -66 -50.5 -106.5t-125.5 -40.5q-74 0 -126 40l29 58q36 -36 91 -36q44 0 72 23.5t28 62.5t-28 57.5t-71 18.5h-48v61h47q36 0 61 18t25 50q0 29 -22.5 47.5t-58.5 18.5q-55 0 -88 -37l-27 57q56 43 133 43q62 0 103 -32.5t41 -84.5q0 -36 -21 -63t-57 -40v-1
q42 -8 67.5 -38.5t25.5 -75.5z" />
    <glyph glyph-name="acute" unicode="&#xb4;" 
d="M362 706l-151 -175h-74l117 175h108z" />
    <glyph glyph-name="acute" unicode="&#x301;" 
d="M362 706l-151 -175h-74l117 175h108z" />
    <glyph glyph-name="acute" unicode="&#x2ca;" 
d="M362 706l-151 -175h-74l117 175h108z" />
    <glyph glyph-name="mu" unicode="&#xb5;" horiz-adv-x="527" 
d="M369 72q-24 -35 -61.5 -59.5t-75.5 -24.5q-56 0 -84 43l14 -240h-88v675h88v-301q0 -46 23.5 -71.5t67.5 -25.5q55 0 88 45q22 24 22 58v295h88v-357q0 -45 26 -45q12 0 21 4l7 -65q-22 -10 -53 -10q-79 0 -83 79z" />
    <glyph glyph-name="paragraph" unicode="&#xb6;" horiz-adv-x="553" 
d="M539 644h-94v-621q0 -108 -56 -173t-162 -65q-10 0 -34 2l4 64q3 0 8.5 -0.5t8.5 -0.5q73 0 108.5 50t35.5 131v189h-106q-105 0 -162 66t-57 174q0 112 61 179t170 67h275v-62zM358 283v361h-81v-361h81z" />
    <glyph glyph-name="periodcentered" unicode="&#xb7;" horiz-adv-x="250" 
d="M183 238q0 -26 -15.5 -42t-42.5 -16t-43 16t-16 42q0 24 16 40.5t43 16.5q26 0 42 -16t16 -41z" />
    <glyph glyph-name="periodcentered" unicode="&#x2219;" horiz-adv-x="250" 
d="M183 238q0 -26 -15.5 -42t-42.5 -16t-43 16t-16 42q0 24 16 40.5t43 16.5q26 0 42 -16t16 -41z" />
    <glyph glyph-name="cedilla" unicode="&#xb8;" 
d="M238 -208q-42 0 -78 22l14 55q25 -15 50 -15q23 0 37.5 13t14.5 38q0 43 -55 105h55q64 -69 64 -128q0 -42 -29 -66t-73 -24z" />
    <glyph glyph-name="cedilla" unicode="&#x327;" 
d="M238 -208q-42 0 -78 22l14 55q25 -15 50 -15q23 0 37.5 13t14.5 38q0 43 -55 105h55q64 -69 64 -128q0 -42 -29 -66t-73 -24z" />
    <glyph glyph-name="onesuperior" unicode="&#xb9;" horiz-adv-x="280" 
d="M216 293h-80v379q-38 -28 -104 -58l-27 60q72 29 142 78h69v-459z" />
    <glyph glyph-name="ordmasculine" unicode="&#xba;" horiz-adv-x="378" 
d="M355 467q0 -79 -43.5 -132.5t-123.5 -53.5q-81 0 -122.5 52.5t-41.5 132.5q0 79 43 132t124 53t122.5 -52t41.5 -132zM275 467q0 51 -19.5 88.5t-64.5 37.5t-66.5 -37.5t-21.5 -89.5q0 -51 20 -88.5t65 -37.5q46 0 66.5 38t20.5 89z" />
    <glyph glyph-name="guillemotright" unicode="&#xbb;" horiz-adv-x="476" 
d="M459 229l-152 -194h-79l133 194l-133 194h79zM248 229l-153 -194h-78l132 194l-132 194h78z" />
    <glyph glyph-name="onequarter" unicode="&#xbc;" horiz-adv-x="792" 
d="M645 706l-415 -706h-82l415 706h82zM216 247h-80v379q-38 -28 -104 -58l-27 60q72 29 142 78h69v-459zM788 100h-62v-100h-74v100h-208v71l185 288h97v-297h62v-62zM652 162v226h-1q-11 -28 -32 -59l-109 -167h142z" />
    <glyph glyph-name="onehalf" unicode="&#xbd;" horiz-adv-x="863" 
d="M641 706l-415 -706h-81l416 706h80zM216 247h-80v379q-38 -28 -104 -58l-27 60q72 29 142 78h69v-459zM829 0h-284v52q4 38 33.5 74t84.5 83q73 63 73 116q0 37 -24 59t-59 22q-51 0 -89 -47l-36 54q57 58 143 58q61 0 104.5 -36t43.5 -101q0 -35 -17 -67t-34 -49.5
t-52 -46.5q-24 -22 -36 -33.5t-29 -34t-20 -39.5h198v-64z" />
    <glyph glyph-name="threequarters" unicode="&#xbe;" horiz-adv-x="839" 
d="M322 383q0 -66 -50.5 -106.5t-125.5 -40.5q-74 0 -126 40l29 58q36 -36 91 -36q44 0 72 23.5t28 62.5t-28 57.5t-71 18.5h-48v61h47q36 0 61 18t25 50q0 29 -22.5 47.5t-58.5 18.5q-55 0 -88 -37l-27 57q56 43 133 43q62 0 103 -32.5t41 -84.5q0 -36 -21 -63t-57 -40v-1
q42 -8 67.5 -38.5t25.5 -75.5zM693 706l-416 -706h-82l416 706h82zM835 100h-61v-100h-75v100h-208v71l185 288h98v-297h61v-62zM699 162v226h-1q-7 -20 -32 -59l-109 -167h142z" />
    <glyph glyph-name="questiondown" unicode="&#xbf;" horiz-adv-x="497" 
d="M323 412q0 -27 -17 -43.5t-45 -16.5q-27 0 -44 17t-17 43t17 43t44 17q28 0 45 -16.5t17 -43.5zM456 -200q-82 -84 -199 -84q-85 0 -145 51.5t-60 138.5q0 81 70 155q24 27 97 87q0 10 3 65t4 76h70l9 -168q-78 -65 -89 -76q-60 -62 -60 -126q0 -52 33.5 -87.5
t86.5 -35.5q90 0 139 73z" />
    <glyph glyph-name="Agrave" unicode="&#xc0;" horiz-adv-x="618" 
d="M615 0h-105l-64 180h-283l-62 -180h-98l251 708h107zM420 259l-79 229q-28 82 -35 124h-3q-7 -41 -36 -125l-77 -228h230zM346 745h-79l-153 135h116z" />
    <glyph glyph-name="Aacute" unicode="&#xc1;" horiz-adv-x="618" 
d="M615 0h-105l-64 180h-283l-62 -180h-98l251 708h107zM420 259l-79 229q-28 82 -35 124h-3q-7 -41 -36 -125l-77 -228h230zM498 880l-153 -135h-78l116 135h115z" />
    <glyph glyph-name="Acircumflex" unicode="&#xc2;" horiz-adv-x="618" 
d="M615 0h-105l-64 180h-283l-62 -180h-98l251 708h107zM420 259l-79 229q-28 82 -35 124h-3q-7 -41 -36 -125l-77 -228h230zM471 745h-76l-90 77l-87 -77h-77l118 135h94z" />
    <glyph glyph-name="Atilde" unicode="&#xc3;" horiz-adv-x="618" 
d="M615 0h-105l-64 180h-283l-62 -180h-98l251 708h107zM420 259l-79 229q-28 82 -35 124h-3q-7 -41 -36 -125l-77 -228h230zM477 882q-16 -115 -101 -115q-26 0 -72 20.5t-67 20.5q-39 0 -49 -48h-61q16 114 100 114q26 0 72 -20.5t67 -20.5q39 0 49 49h62z" />
    <glyph glyph-name="Adieresis" unicode="&#xc4;" horiz-adv-x="618" 
d="M615 0h-105l-64 180h-283l-62 -180h-98l251 708h107zM420 259l-79 229q-28 82 -35 124h-3q-7 -41 -36 -125l-77 -228h230zM467 850q0 -24 -15.5 -39.5t-41.5 -15.5q-25 0 -41 15.5t-16 39.5q0 25 16 40.5t41 15.5q26 0 41.5 -15.5t15.5 -40.5zM255 850q0 -24 -15.5 -39.5
t-41.5 -15.5t-41.5 15.5t-15.5 39.5q0 25 15.5 40.5t41.5 15.5t41.5 -15.5t15.5 -40.5z" />
    <glyph glyph-name="Aring" unicode="&#xc5;" horiz-adv-x="618" 
d="M615 0h-105l-64 180h-283l-62 -180h-98l251 708h107zM420 259l-79 229q-28 82 -35 124h-3q-7 -41 -36 -125l-77 -228h230zM409 840q0 -43 -27 -72.5t-77 -29.5q-51 0 -77.5 28t-26.5 72t27 72t77 28q51 0 77.5 -27t26.5 -71zM355 839q0 24 -12 40.5t-38 16.5
q-25 0 -37.5 -17t-12.5 -41t12 -41t38 -17q25 0 37.5 17.5t12.5 41.5z" />
    <glyph glyph-name="AE" unicode="&#xc6;" horiz-adv-x="880" 
d="M827 0h-347l-48 287h-213l-127 -287h-100l314 706h486v-85h-318l41 -242h275v-83h-261l36 -211h262v-85zM420 362l-46 276h-7l-121 -276h174z" />
    <glyph glyph-name="Ccedilla" unicode="&#xc7;" horiz-adv-x="604" 
d="M312 -208q-42 0 -78 22l14 55q25 -15 50 -15q23 0 37.5 13t14.5 38q0 36 -36 82q-131 18 -205.5 117.5t-74.5 240.5q0 72 20.5 138.5t60 121.5t105 87.5t147.5 32.5q126 0 203 -65l-40 -80q-70 58 -158 58q-60 0 -107 -26t-74.5 -68.5t-41 -92.5t-13.5 -104
q0 -119 67.5 -198t175.5 -79q91 0 158 58l34 -77q-37 -30 -91 -48.5t-107 -19.5q41 -55 41 -101q0 -42 -29 -66t-73 -24z" />
    <glyph glyph-name="Egrave" unicode="&#xc8;" horiz-adv-x="538" 
d="M485 0h-406v706h391v-85h-292v-206h282v-82h-282v-248h307v-85zM320 745h-79l-153 135h116z" />
    <glyph glyph-name="Eacute" unicode="&#xc9;" horiz-adv-x="538" 
d="M485 0h-406v706h391v-85h-292v-206h282v-82h-282v-248h307v-85zM453 880l-153 -135h-78l116 135h115z" />
    <glyph glyph-name="Ecircumflex" unicode="&#xca;" horiz-adv-x="538" 
d="M485 0h-406v706h391v-85h-292v-206h282v-82h-282v-248h307v-85zM438 745h-76l-90 77l-87 -77h-77l118 135h94z" />
    <glyph glyph-name="Edieresis" unicode="&#xcb;" horiz-adv-x="538" 
d="M485 0h-406v706h391v-85h-292v-206h282v-82h-282v-248h307v-85zM434 850q0 -24 -15.5 -39.5t-41.5 -15.5q-25 0 -41 15.5t-16 39.5q0 25 16 40.5t41 15.5q26 0 41.5 -15.5t15.5 -40.5zM222 850q0 -24 -15.5 -39.5t-41.5 -15.5t-41.5 15.5t-15.5 39.5q0 25 15.5 40.5
t41.5 15.5t41.5 -15.5t15.5 -40.5z" />
    <glyph glyph-name="Igrave" unicode="&#xcc;" horiz-adv-x="266" 
d="M182 0h-99v706h99v-706zM173 745h-79l-153 135h116z" />
    <glyph glyph-name="Iacute" unicode="&#xcd;" horiz-adv-x="266" 
d="M182 0h-99v706h99v-706zM324 880l-153 -135h-78l116 135h115z" />
    <glyph glyph-name="Icircumflex" unicode="&#xce;" horiz-adv-x="266" 
d="M182 0h-99v706h99v-706zM298 745h-76l-90 77l-87 -77h-77l118 135h94z" />
    <glyph glyph-name="Idieresis" unicode="&#xcf;" horiz-adv-x="266" 
d="M182 0h-99v706h99v-706zM296 850q0 -24 -15.5 -39.5t-41.5 -15.5q-25 0 -41 15.5t-16 39.5q0 25 16 40.5t41 15.5q26 0 41.5 -15.5t15.5 -40.5zM84 850q0 -24 -15.5 -39.5t-41.5 -15.5t-41.5 15.5t-15.5 39.5q0 25 15.5 40.5t41.5 15.5t41.5 -15.5t15.5 -40.5z" />
    <glyph glyph-name="Eth" unicode="&#xd0;" horiz-adv-x="708" 
d="M682 369q0 -369 -420 -369h-174v336h-81v77h81v293h179q42 0 78.5 -2.5t80 -11.5t78.5 -23.5t69.5 -40.5t57.5 -60.5t37 -85t14 -113.5zM582 363q0 260 -303 260h-93v-210h176v-77h-176v-254h95q301 0 301 281z" />
    <glyph glyph-name="Ntilde" unicode="&#xd1;" horiz-adv-x="721" 
d="M641 0h-91l-307 435q-45 62 -70 115h-2v-550h-92v706h94l294 -426q68 -100 80 -132h3v558h91v-706zM545 882q-16 -115 -101 -115q-26 0 -72 20.5t-67 20.5q-39 0 -49 -48h-61q16 114 100 114q27 0 73 -20.5t66 -20.5q39 0 49 49h62z" />
    <glyph glyph-name="Ograve" unicode="&#xd2;" horiz-adv-x="702" 
d="M668 354q0 -78 -18.5 -142t-49.5 -106t-72.5 -71t-85.5 -41.5t-91 -12.5q-145 0 -231 98.5t-86 274.5q0 78 18.5 142t49.5 106t72.5 71t85.5 41.5t91 12.5q145 0 231 -98.5t86 -274.5zM566 354q0 122 -53 205t-162 83q-57 0 -100 -24t-67.5 -65t-36 -91t-11.5 -108
q0 -78 20 -140.5t70 -105t125 -42.5t125 42.5t70 104.5t20 141zM393 745h-79l-153 135h116z" />
    <glyph glyph-name="Oacute" unicode="&#xd3;" horiz-adv-x="702" 
d="M668 354q0 -78 -18.5 -142t-49.5 -106t-72.5 -71t-85.5 -41.5t-91 -12.5q-145 0 -231 98.5t-86 274.5q0 78 18.5 142t49.5 106t72.5 71t85.5 41.5t91 12.5q145 0 231 -98.5t86 -274.5zM566 354q0 122 -53 205t-162 83q-57 0 -100 -24t-67.5 -65t-36 -91t-11.5 -108
q0 -78 20 -140.5t70 -105t125 -42.5t125 42.5t70 104.5t20 141zM536 880l-153 -135h-78l116 135h115z" />
    <glyph glyph-name="Ocircumflex" unicode="&#xd4;" horiz-adv-x="702" 
d="M668 354q0 -78 -18.5 -142t-49.5 -106t-72.5 -71t-85.5 -41.5t-91 -12.5q-145 0 -231 98.5t-86 274.5q0 78 18.5 142t49.5 106t72.5 71t85.5 41.5t91 12.5q145 0 231 -98.5t86 -274.5zM566 354q0 122 -53 205t-162 83q-57 0 -100 -24t-67.5 -65t-36 -91t-11.5 -108
q0 -78 20 -140.5t70 -105t125 -42.5t125 42.5t70 104.5t20 141zM513 745h-76l-90 77l-87 -77h-77l118 135h94z" />
    <glyph glyph-name="Otilde" unicode="&#xd5;" horiz-adv-x="702" 
d="M668 354q0 -78 -18.5 -142t-49.5 -106t-72.5 -71t-85.5 -41.5t-91 -12.5q-145 0 -231 98.5t-86 274.5q0 78 18.5 142t49.5 106t72.5 71t85.5 41.5t91 12.5q145 0 231 -98.5t86 -274.5zM566 354q0 122 -53 205t-162 83q-57 0 -100 -24t-67.5 -65t-36 -91t-11.5 -108
q0 -78 20 -140.5t70 -105t125 -42.5t125 42.5t70 104.5t20 141zM529 882q-16 -115 -101 -115q-26 0 -72 20.5t-67 20.5q-39 0 -49 -48h-61q16 114 100 114q27 0 73 -20.5t66 -20.5q39 0 49 49h62z" />
    <glyph glyph-name="Odieresis" unicode="&#xd6;" horiz-adv-x="702" 
d="M668 354q0 -78 -18.5 -142t-49.5 -106t-72.5 -71t-85.5 -41.5t-91 -12.5q-145 0 -231 98.5t-86 274.5q0 78 18.5 142t49.5 106t72.5 71t85.5 41.5t91 12.5q145 0 231 -98.5t86 -274.5zM566 354q0 122 -53 205t-162 83q-57 0 -100 -24t-67.5 -65t-36 -91t-11.5 -108
q0 -78 20 -140.5t70 -105t125 -42.5t125 42.5t70 104.5t20 141zM517 850q0 -24 -15.5 -39.5t-41.5 -15.5q-25 0 -41 15.5t-16 39.5q0 25 16 40.5t41 15.5q26 0 41.5 -15.5t15.5 -40.5zM305 850q0 -24 -15.5 -39.5t-41.5 -15.5t-41.5 15.5t-15.5 39.5q0 25 15.5 40.5
t41.5 15.5t41.5 -15.5t15.5 -40.5z" />
    <glyph glyph-name="multiply" unicode="&#xd7;" 
d="M467 109l-54 -56l-163 162l-164 -163l-55 57l164 162l-163 163l55 56l163 -162l164 163l54 -56l-163 -163z" />
    <glyph glyph-name="Oslash" unicode="&#xd8;" horiz-adv-x="702" 
d="M695 701l-89 -100q65 -95 65 -247q0 -97 -28 -171t-75 -117t-101.5 -64t-113.5 -21q-135 0 -219 86l-89 -101l-41 37l95 108q-62 96 -62 243q0 97 28 171t75 117t101.5 64t113.5 21q132 0 217 -83l83 95zM508 572q-57 70 -154 70q-75 0 -125 -42.5t-70 -104.5t-20 -141
q0 -92 34 -161zM569 354q0 95 -35 165l-335 -380q54 -73 155 -73q57 0 100 24t67.5 65t36 91t11.5 108z" />
    <glyph glyph-name="Ugrave" unicode="&#xd9;" horiz-adv-x="716" 
d="M637 6q-127 -24 -229 -24q-334 0 -334 298v426h98v-435q0 -102 64 -155t183 -53q68 0 122 13v630h96v-700zM401 745h-79l-153 135h116z" />
    <glyph glyph-name="Uacute" unicode="&#xda;" horiz-adv-x="716" 
d="M637 6q-127 -24 -229 -24q-334 0 -334 298v426h98v-435q0 -102 64 -155t183 -53q68 0 122 13v630h96v-700zM532 880l-153 -135h-78l116 135h115z" />
    <glyph glyph-name="Ucircumflex" unicode="&#xdb;" horiz-adv-x="716" 
d="M637 6q-127 -24 -229 -24q-334 0 -334 298v426h98v-435q0 -102 64 -155t183 -53q68 0 122 13v630h96v-700zM521 745h-76l-90 77l-87 -77h-77l118 135h94z" />
    <glyph glyph-name="Udieresis" unicode="&#xdc;" horiz-adv-x="716" 
d="M637 6q-127 -24 -229 -24q-334 0 -334 298v426h98v-435q0 -102 64 -155t183 -53q68 0 122 13v630h96v-700zM523 850q0 -24 -15.5 -39.5t-41.5 -15.5q-25 0 -41 15.5t-16 39.5q0 25 16 40.5t41 15.5q26 0 41.5 -15.5t15.5 -40.5zM311 850q0 -24 -15.5 -39.5t-41.5 -15.5
t-41.5 15.5t-15.5 39.5q0 25 15.5 40.5t41.5 15.5t41.5 -15.5t15.5 -40.5z" />
    <glyph glyph-name="Yacute" unicode="&#xdd;" horiz-adv-x="540" 
d="M538 706l-212 -438v-268h-98v267l-226 439h116l161 -347l153 347h106zM465 880l-153 -135h-78l116 135h115z" />
    <glyph glyph-name="Thorn" unicode="&#xde;" horiz-adv-x="566" 
d="M536 433q0 -55 -17.5 -96.5t-44.5 -66.5t-66 -40t-76 -20.5t-80 -5.5h-74v-204h-99v706h99v-61h73q285 0 285 -212zM437 427q0 136 -181 136h-78v-278h74q185 0 185 142z" />
    <glyph glyph-name="germandbls" unicode="&#xdf;" horiz-adv-x="584" 
d="M84 0v536q0 98 61 156.5t157 58.5q86 0 143 -44.5t57 -120.5q0 -53 -28 -87t-80 -60q-47 -23 -64.5 -39.5t-17.5 -40.5q0 -26 20 -40.5t69 -31.5q69 -24 102.5 -58.5t33.5 -97.5q0 -65 -51 -105.5t-131 -40.5q-84 0 -137 43l33 69q47 -39 111 -39q40 0 66 16t26 48
q0 35 -23 52.5t-80 36.5q-62 21 -91.5 51.5t-29.5 81.5q0 44 24 75t80 62q43 24 61 47.5t18 59.5q0 42 -32 69t-79 27q-59 0 -94.5 -38t-35.5 -106v-540h-88z" />
    <glyph glyph-name="agrave" unicode="&#xe0;" horiz-adv-x="483" 
d="M462 2q-27 -9 -61 -9q-73 0 -76 70q-60 -76 -147 -76q-61 0 -100 37t-39 93q0 154 237 154q27 0 35 2.5t8 12.5v31q0 40 -24.5 65t-76.5 25q-73 0 -120 -49l-35 68q68 55 175 55q69 0 116.5 -37.5t47.5 -119.5v-230q0 -32 28 -32q10 0 25 5zM318 154v53h-46
q-28 0 -49.5 -2.5t-45.5 -10t-37 -25.5t-13 -45q0 -30 21 -47.5t57 -17.5q56 0 93 43q20 23 20 52zM271 531h-73l-152 175h108z" />
    <glyph glyph-name="aacute" unicode="&#xe1;" horiz-adv-x="483" 
d="M462 2q-27 -9 -61 -9q-73 0 -76 70q-60 -76 -147 -76q-61 0 -100 37t-39 93q0 154 237 154q27 0 35 2.5t8 12.5v31q0 40 -24.5 65t-76.5 25q-73 0 -120 -49l-35 68q68 55 175 55q69 0 116.5 -37.5t47.5 -119.5v-230q0 -32 28 -32q10 0 25 5zM318 154v53h-46
q-28 0 -49.5 -2.5t-45.5 -10t-37 -25.5t-13 -45q0 -30 21 -47.5t57 -17.5q56 0 93 43q20 23 20 52zM389 706l-151 -175h-74l117 175h108z" />
    <glyph glyph-name="acircumflex" unicode="&#xe2;" horiz-adv-x="483" 
d="M462 2q-27 -9 -61 -9q-73 0 -76 70q-60 -76 -147 -76q-61 0 -100 37t-39 93q0 154 237 154q27 0 35 2.5t8 12.5v31q0 40 -24.5 65t-76.5 25q-73 0 -120 -49l-35 68q68 55 175 55q69 0 116.5 -37.5t47.5 -119.5v-230q0 -32 28 -32q10 0 25 5zM318 154v53h-46
q-28 0 -49.5 -2.5t-45.5 -10t-37 -25.5t-13 -45q0 -30 21 -47.5t57 -17.5q56 0 93 43q20 23 20 52zM390 531h-72l-91 120l-89 -120h-73l118 175h89z" />
    <glyph glyph-name="atilde" unicode="&#xe3;" horiz-adv-x="483" 
d="M462 2q-27 -9 -61 -9q-73 0 -76 70q-60 -76 -147 -76q-61 0 -100 37t-39 93q0 154 237 154q27 0 35 2.5t8 12.5v31q0 40 -24.5 65t-76.5 25q-73 0 -120 -49l-35 68q68 55 175 55q69 0 116.5 -37.5t47.5 -119.5v-230q0 -32 28 -32q10 0 25 5zM318 154v53h-46
q-28 0 -49.5 -2.5t-45.5 -10t-37 -25.5t-13 -45q0 -30 21 -47.5t57 -17.5q56 0 93 43q20 23 20 52zM406 697q-19 -122 -100 -122q-26 0 -72 26t-67 26q-37 0 -50 -61h-58q19 123 99 123q27 0 73 -26t67 -26q35 0 50 60h58z" />
    <glyph glyph-name="adieresis" unicode="&#xe4;" horiz-adv-x="483" 
d="M462 2q-27 -9 -61 -9q-73 0 -76 70q-60 -76 -147 -76q-61 0 -100 37t-39 93q0 154 237 154q27 0 35 2.5t8 12.5v31q0 40 -24.5 65t-76.5 25q-73 0 -120 -49l-35 68q68 55 175 55q69 0 116.5 -37.5t47.5 -119.5v-230q0 -32 28 -32q10 0 25 5zM318 154v53h-46
q-28 0 -49.5 -2.5t-45.5 -10t-37 -25.5t-13 -45q0 -30 21 -47.5t57 -17.5q56 0 93 43q20 23 20 52zM388 658q0 -23 -15 -37.5t-39 -14.5q-25 0 -40 14.5t-15 37.5q0 24 15 38.5t40 14.5q24 0 39 -15t15 -38zM177 658q0 -23 -14.5 -37.5t-39.5 -14.5t-40 14.5t-15 37.5
q0 24 15 38.5t40 14.5t39.5 -14.5t14.5 -38.5z" />
    <glyph glyph-name="aring" unicode="&#xe5;" horiz-adv-x="483" 
d="M462 2q-27 -9 -61 -9q-73 0 -76 70q-60 -76 -147 -76q-61 0 -100 37t-39 93q0 154 237 154q27 0 35 2.5t8 12.5v31q0 40 -24.5 65t-76.5 25q-73 0 -120 -49l-35 68q68 55 175 55q69 0 116.5 -37.5t47.5 -119.5v-230q0 -32 28 -32q10 0 25 5zM318 154v53h-46
q-28 0 -49.5 -2.5t-45.5 -10t-37 -25.5t-13 -45q0 -30 21 -47.5t57 -17.5q56 0 93 43q20 23 20 52zM339 646q0 -43 -27 -72.5t-76 -29.5q-50 0 -76.5 28.5t-26.5 71.5q0 44 26.5 72t76.5 28t76.5 -27.5t26.5 -70.5zM287 645q0 24 -12.5 41t-38.5 17t-38.5 -17.5t-12.5 -41.5
t12 -41t39 -17q26 0 38.5 18t12.5 41z" />
    <glyph glyph-name="ae" unicode="&#xe6;" horiz-adv-x="747" 
d="M711 273q0 -33 -1 -45h-316v-14q0 -67 42.5 -109t117.5 -42q67 0 118 40l29 -70q-69 -47 -163 -47q-133 0 -195 100q-44 -53 -79.5 -76t-91.5 -23q-61 0 -100 37t-39 93q0 154 237 154q27 0 35 2.5t8 12.5v31q0 40 -24.5 65t-76.5 25q-73 0 -120 -49l-35 68q62 55 168 55
q105 0 145 -70q55 70 148 70q96 0 144.5 -60.5t48.5 -147.5zM292 102q26 30 25 58l-5 47h-46q-28 0 -49.5 -2.5t-45.5 -10t-37 -25.5t-13 -45q0 -30 21 -47.5t57 -17.5q53 0 93 43zM628 295q0 47 -30 82.5t-84 35.5q-56 0 -86.5 -35.5t-33.5 -82.5h234z" />
    <glyph glyph-name="ccedilla" unicode="&#xe7;" horiz-adv-x="422" 
d="M207 -208q-42 0 -78 22l14 55q25 -15 50 -15q23 0 37.5 13t14.5 38q0 35 -39 86q-83 15 -128 80.5t-45 155.5q0 66 22 121.5t73.5 94t126.5 38.5q93 0 142 -46l-36 -77q-40 42 -101 42q-67 0 -101.5 -48t-34.5 -123q0 -72 39.5 -117.5t101.5 -45.5q59 0 102 38l31 -70
q-46 -43 -132 -48q43 -53 43 -104q0 -42 -29 -66t-73 -24z" />
    <glyph glyph-name="egrave" unicode="&#xe8;" horiz-adv-x="474" 
d="M438 273q0 -33 -1 -45h-316v-14q0 -68 42.5 -109.5t117.5 -41.5q67 0 118 40l29 -70q-69 -47 -163 -47q-110 0 -171 68.5t-61 175.5q0 101 54.5 176t157.5 75q96 0 144.5 -60.5t48.5 -147.5zM355 295q0 47 -30 82.5t-84 35.5q-56 0 -86.5 -35.5t-33.5 -82.5h234zM286 531
h-73l-152 175h108z" />
    <glyph glyph-name="eacute" unicode="&#xe9;" horiz-adv-x="474" 
d="M438 273q0 -33 -1 -45h-316v-14q0 -68 42.5 -109.5t117.5 -41.5q67 0 118 40l29 -70q-69 -47 -163 -47q-110 0 -171 68.5t-61 175.5q0 101 54.5 176t157.5 75q96 0 144.5 -60.5t48.5 -147.5zM355 295q0 47 -30 82.5t-84 35.5q-56 0 -86.5 -35.5t-33.5 -82.5h234zM427 706
l-151 -175h-74l117 175h108z" />
    <glyph glyph-name="ecircumflex" unicode="&#xea;" horiz-adv-x="474" 
d="M438 273q0 -33 -1 -45h-316v-14q0 -68 42.5 -109.5t117.5 -41.5q67 0 118 40l29 -70q-69 -47 -163 -47q-110 0 -171 68.5t-61 175.5q0 101 54.5 176t157.5 75q96 0 144.5 -60.5t48.5 -147.5zM355 295q0 47 -30 82.5t-84 35.5q-56 0 -86.5 -35.5t-33.5 -82.5h234zM405 531
h-72l-91 120l-89 -120h-73l118 175h89z" />
    <glyph glyph-name="edieresis" unicode="&#xeb;" horiz-adv-x="474" 
d="M438 273q0 -33 -1 -45h-316v-14q0 -68 42.5 -109.5t117.5 -41.5q67 0 118 40l29 -70q-69 -47 -163 -47q-110 0 -171 68.5t-61 175.5q0 101 54.5 176t157.5 75q96 0 144.5 -60.5t48.5 -147.5zM355 295q0 47 -30 82.5t-84 35.5q-56 0 -86.5 -35.5t-33.5 -82.5h234zM411 658
q0 -23 -15 -37.5t-39 -14.5q-25 0 -40 14.5t-15 37.5q0 24 15 38.5t40 14.5q24 0 39 -15t15 -38zM200 658q0 -23 -14.5 -37.5t-39.5 -14.5t-40 14.5t-15 37.5q0 24 15 38.5t40 14.5q24 0 39 -14.5t15 -38.5z" />
    <glyph glyph-name="igrave" unicode="&#xec;" horiz-adv-x="260" 
d="M173 0h-88v466h88v-466zM162 531h-73l-152 175h108z" />
    <glyph glyph-name="iacute" unicode="&#xed;" horiz-adv-x="260" 
d="M173 0h-88v466h88v-466zM318 706l-151 -175h-74l117 175h108z" />
    <glyph glyph-name="icircumflex" unicode="&#xee;" horiz-adv-x="260" 
d="M173 0h-88v466h88v-466zM292 531h-72l-91 120l-89 -120h-73l118 175h89z" />
    <glyph glyph-name="idieresis" unicode="&#xef;" horiz-adv-x="260" 
d="M173 0h-88v466h88v-466zM289 658q0 -23 -15 -37.5t-39 -14.5q-25 0 -40 14.5t-15 37.5q0 24 15 38.5t40 14.5q24 0 39 -15t15 -38zM78 658q0 -23 -14.5 -37.5t-39.5 -14.5t-40 14.5t-15 37.5q0 24 15 38.5t40 14.5q24 0 39 -14.5t15 -38.5z" />
    <glyph glyph-name="eth" unicode="&#xf0;" horiz-adv-x="494" 
d="M164 591l76 49q-39 33 -87 33q-45 0 -82 -18l-14 78q44 16 104 16q84 0 150 -56l85 56l40 -53l-76 -49q101 -128 101 -370q0 -126 -53.5 -210t-162.5 -84q-104 0 -158 72t-54 179q0 65 20 119t68.5 92t118.5 38q76 0 113 -51q-15 99 -62 164l-88 -58zM369 233
q0 45 -10.5 82t-38.5 64.5t-71 27.5q-64 0 -94.5 -51t-30.5 -121q0 -45 10 -82.5t38.5 -65.5t72.5 -28q64 0 94 52t30 122z" />
    <glyph glyph-name="ntilde" unicode="&#xf1;" horiz-adv-x="543" 
d="M470 0h-88v301q0 98 -98 98q-59 0 -97 -46q-15 -15 -19 -26t-4 -33v-294h-88v466h87v-71q61 86 153 86q75 0 114.5 -41.5t39.5 -115.5v-324zM449 697q-19 -122 -100 -122q-27 0 -73 26t-66 26q-37 0 -50 -61h-58q19 123 99 123q27 0 73 -26t67 -26q35 0 50 60h58z" />
    <glyph glyph-name="ograve" unicode="&#xf2;" horiz-adv-x="494" 
d="M461 234q0 -105 -56.5 -178t-159.5 -73q-104 0 -158 72t-54 179q0 106 56 177.5t160 71.5t158 -71t54 -178zM369 233q0 72 -28 123t-92 51t-94.5 -51t-30.5 -121q0 -45 10 -82.5t38.5 -65.5t72.5 -28q64 0 94 52t30 122zM282 531h-73l-152 175h108z" />
    <glyph glyph-name="oacute" unicode="&#xf3;" horiz-adv-x="494" 
d="M461 234q0 -105 -56.5 -178t-159.5 -73q-104 0 -158 72t-54 179q0 106 56 177.5t160 71.5t158 -71t54 -178zM369 233q0 72 -28 123t-92 51t-94.5 -51t-30.5 -121q0 -45 10 -82.5t38.5 -65.5t72.5 -28q64 0 94 52t30 122zM418 706l-151 -175h-74l117 175h108z" />
    <glyph glyph-name="ocircumflex" unicode="&#xf4;" horiz-adv-x="494" 
d="M461 234q0 -105 -56.5 -178t-159.5 -73q-104 0 -158 72t-54 179q0 106 56 177.5t160 71.5t158 -71t54 -178zM369 233q0 72 -28 123t-92 51t-94.5 -51t-30.5 -121q0 -45 10 -82.5t38.5 -65.5t72.5 -28q64 0 94 52t30 122zM411 531h-72l-91 120l-89 -120h-73l118 175h89z
" />
    <glyph glyph-name="otilde" unicode="&#xf5;" horiz-adv-x="494" 
d="M461 234q0 -105 -56.5 -178t-159.5 -73q-104 0 -158 72t-54 179q0 106 56 177.5t160 71.5t158 -71t54 -178zM369 233q0 72 -28 123t-92 51t-94.5 -51t-30.5 -121q0 -45 10 -82.5t38.5 -65.5t72.5 -28q64 0 94 52t30 122zM420 697q-19 -122 -100 -122q-26 0 -72.5 26
t-66.5 26q-37 0 -50 -61h-58q19 123 99 123q27 0 73 -26t67 -26q35 0 50 60h58z" />
    <glyph glyph-name="odieresis" unicode="&#xf6;" horiz-adv-x="494" 
d="M461 234q0 -105 -56.5 -178t-159.5 -73q-104 0 -158 72t-54 179q0 106 56 177.5t160 71.5t158 -71t54 -178zM369 233q0 72 -28 123t-92 51t-94.5 -51t-30.5 -121q0 -45 10 -82.5t38.5 -65.5t72.5 -28q64 0 94 52t30 122zM409 658q0 -23 -15 -37.5t-39 -14.5
q-25 0 -40 14.5t-15 37.5q0 24 15 38.5t40 14.5q24 0 39 -15t15 -38zM198 658q0 -23 -14.5 -37.5t-39.5 -14.5t-40 14.5t-15 37.5q0 24 15 38.5t40 14.5q24 0 39 -14.5t15 -38.5z" />
    <glyph glyph-name="divide" unicode="&#xf7;" 
d="M306 457q0 -24 -15.5 -38t-39.5 -14q-26 0 -42 14.5t-16 37.5t15.5 38t42.5 15q25 0 40 -14.5t15 -38.5zM480 233h-461v79h461v-79zM306 89q0 -24 -15.5 -38.5t-39.5 -14.5q-26 0 -42 14.5t-16 38.5q0 22 15.5 37.5t42.5 15.5q25 0 40 -14.5t15 -38.5z" />
    <glyph glyph-name="oslash" unicode="&#xf8;" horiz-adv-x="494" 
d="M495 465l-72 -78q38 -65 38 -153q0 -105 -56.5 -178t-159.5 -73q-90 0 -145 57l-63 -68l-37 34l70 75q-37 64 -37 153q0 106 56 177.5t160 71.5q88 0 143 -55l67 71zM369 233q0 47 -14 82l-197 -213q31 -43 87 -43q64 0 94 52t30 122zM124 235q0 -47 14 -82l196 213
q-31 41 -85 41q-64 0 -94.5 -51t-30.5 -121z" />
    <glyph glyph-name="ugrave" unicode="&#xf9;" horiz-adv-x="526" 
d="M369 72q-65 -86 -146 -86q-71 0 -110 41.5t-39 115.5v323h88v-301q0 -46 23.5 -71.5t67.5 -25.5q55 0 88 45q22 24 22 58v295h88v-357q0 -45 26 -45q12 0 21 4l7 -65q-22 -10 -53 -10q-79 0 -83 79zM297 531h-73l-152 175h108z" />
    <glyph glyph-name="uacute" unicode="&#xfa;" horiz-adv-x="526" 
d="M369 72q-65 -86 -146 -86q-71 0 -110 41.5t-39 115.5v323h88v-301q0 -46 23.5 -71.5t67.5 -25.5q55 0 88 45q22 24 22 58v295h88v-357q0 -45 26 -45q12 0 21 4l7 -65q-22 -10 -53 -10q-79 0 -83 79zM452 706l-151 -175h-74l117 175h108z" />
    <glyph glyph-name="ucircumflex" unicode="&#xfb;" horiz-adv-x="526" 
d="M369 72q-65 -86 -146 -86q-71 0 -110 41.5t-39 115.5v323h88v-301q0 -46 23.5 -71.5t67.5 -25.5q55 0 88 45q22 24 22 58v295h88v-357q0 -45 26 -45q12 0 21 4l7 -65q-22 -10 -53 -10q-79 0 -83 79zM425 531h-72l-91 120l-89 -120h-73l118 175h89z" />
    <glyph glyph-name="udieresis" unicode="&#xfc;" horiz-adv-x="526" 
d="M369 72q-65 -86 -146 -86q-71 0 -110 41.5t-39 115.5v323h88v-301q0 -46 23.5 -71.5t67.5 -25.5q55 0 88 45q22 24 22 58v295h88v-357q0 -45 26 -45q12 0 21 4l7 -65q-22 -10 -53 -10q-79 0 -83 79zM424 658q0 -23 -15 -37.5t-39 -14.5q-25 0 -40 14.5t-15 37.5
q0 24 15 38.5t40 14.5q24 0 39 -15t15 -38zM213 658q0 -23 -14.5 -37.5t-39.5 -14.5t-40 14.5t-15 37.5q0 24 15 38.5t40 14.5t39.5 -14.5t14.5 -38.5z" />
    <glyph glyph-name="yacute" unicode="&#xfd;" horiz-adv-x="422" 
d="M422 466l-176 -514q-58 -167 -184 -167q-51 0 -95 22l26 75q33 -21 67 -21q73 0 103 87l11 33l-174 485h97l88 -279q10 -30 21.5 -71t12.5 -43h1q24 83 35 116l83 277h84zM404 706l-151 -175h-74l117 175h108z" />
    <glyph glyph-name="thorn" unicode="&#xfe;" horiz-adv-x="507" 
d="M76 740h88v-342q55 83 136 83t127.5 -69t46.5 -171q0 -103 -54 -179t-153 -76q-30 0 -60 9.5t-43 26.5v-232h-88v950zM383 226q0 76 -28.5 124.5t-85.5 48.5q-51 0 -85 -45q-20 -22 -20 -57v-176q0 -29 23 -47.5t66 -18.5q64 0 97 48t33 123z" />
    <glyph glyph-name="ydieresis" unicode="&#xff;" horiz-adv-x="422" 
d="M422 466l-176 -514q-58 -167 -184 -167q-51 0 -95 22l26 75q33 -21 67 -21q73 0 103 87l11 33l-174 485h97l88 -279q10 -30 21.5 -71t12.5 -43h1q24 83 35 116l83 277h84zM378 658q0 -23 -15 -37.5t-39 -14.5q-25 0 -40 14.5t-15 37.5q0 24 15 38.5t40 14.5q24 0 39 -15
t15 -38zM167 658q0 -23 -14.5 -37.5t-39.5 -14.5t-40 14.5t-15 37.5q0 24 15 38.5t40 14.5t39.5 -14.5t14.5 -38.5z" />
    <glyph glyph-name="dotlessi" unicode="&#x131;" horiz-adv-x="260" 
d="M173 0h-88v466h88v-466z" />
    <glyph glyph-name="Lslash" unicode="&#x141;" horiz-adv-x="502" 
d="M492 0h-413v278l-81 -49v80l81 47v350h99v-292l156 94v-79l-156 -94v-250h314v-85z" />
    <glyph glyph-name="lslash" unicode="&#x142;" horiz-adv-x="254" 
d="M254 532v-76l-90 -54v-307q0 -33 28 -33q11 0 26 5l7 -65q-29 -9 -61 -9q-88 0 -88 98v258l-76 -45v77l76 45v314h88v-261z" />
    <glyph glyph-name="OE" unicode="&#x152;" horiz-adv-x="988" 
d="M934 0h-483q-60 0 -113.5 8t-111 31t-98.5 60.5t-67.5 102t-26.5 149.5q0 355 421 355h464v-85h-291v-206h281v-82h-281v-248h306v-85zM530 83v541h-94q-142 0 -221.5 -62.5t-79.5 -209.5q0 -77 26 -132t71.5 -83.5t96 -41t110.5 -12.5h91z" />
    <glyph glyph-name="oe" unicode="&#x153;" horiz-adv-x="828" 
d="M792 273q0 -33 -1 -45h-316v-14q0 -68 42.5 -109.5t117.5 -41.5q69 0 118 40l29 -70q-67 -47 -163 -47q-128 0 -187 99q-58 -102 -178 -102q-109 0 -165 73t-56 178q0 104 58.5 176.5t166.5 72.5q120 0 174 -99q23 43 65.5 70t100.5 27q96 0 145 -60.5t49 -147.5z
M387 233q0 45 -10 81.5t-40.5 64.5t-78.5 28q-69 0 -101.5 -51t-32.5 -121q0 -32 6 -61t20 -56t40.5 -43t63.5 -16q48 0 79.5 28.5t42.5 65.5t11 80zM709 295q0 47 -30 82.5t-84 35.5q-56 0 -86.5 -35.5t-33.5 -82.5h234z" />
    <glyph glyph-name="Scaron" unicode="&#x160;" horiz-adv-x="512" 
d="M470 196q0 -104 -71.5 -158.5t-173.5 -54.5q-113 0 -188 61l36 77q66 -56 158 -56q59 0 100.5 29.5t41.5 87.5q0 48 -27.5 74.5t-80.5 49.5l-63 27q-72 32 -111.5 75.5t-39.5 116.5q0 88 64 144t163 56q106 0 178 -56l-36 -76q-58 52 -143 52q-64 0 -97 -32.5t-33 -77.5
q0 -42 26.5 -67.5t73.5 -45.5l62 -27q78 -34 119.5 -78t41.5 -121zM438 880l-121 -135h-94l-121 135h80l89 -81l88 81h79z" />
    <glyph glyph-name="scaron" unicode="&#x161;" horiz-adv-x="373" 
d="M352 130q0 -65 -51 -105t-131 -40q-85 0 -137 43l32 69q47 -39 111 -39q92 0 92 61q0 30 -23 46.5t-80 35.5q-60 21 -90.5 53t-30.5 83q0 59 46.5 101.5t124.5 42.5q75 0 126 -40l-32 -69q-41 35 -99 35q-42 0 -63 -16t-21 -42t21 -40.5t68 -31.5q69 -23 103 -56t34 -91z
M352 706l-120 -175h-89l-120 175h75l91 -123l89 123h74z" />
    <glyph glyph-name="Ydieresis" unicode="&#x178;" horiz-adv-x="540" 
d="M538 706l-212 -438v-268h-98v267l-226 439h116l161 -347l153 347h106zM440 850q0 -24 -15.5 -39.5t-41.5 -15.5q-25 0 -41 15.5t-16 39.5q0 25 16 40.5t41 15.5q26 0 41.5 -15.5t15.5 -40.5zM228 850q0 -24 -15.5 -39.5t-41.5 -15.5t-41.5 15.5t-15.5 39.5
q0 25 15.5 40.5t41.5 15.5t41.5 -15.5t15.5 -40.5z" />
    <glyph glyph-name="Zcaron" unicode="&#x17d;" horiz-adv-x="549" 
d="M521 0h-491v78l371 543h-360v85h478v-76l-372 -545h374v-85zM443 880l-121 -135h-94l-121 135h80l89 -81l88 81h79z" />
    <glyph glyph-name="zcaron" unicode="&#x17e;" horiz-adv-x="401" 
d="M381 0h-358v77l247 316h-235v73h334v-80l-243 -312h255v-74zM365 706l-120 -175h-89l-120 175h75l91 -123l89 123h74z" />
    <glyph glyph-name="florin" unicode="&#x192;" 
d="M463 577l-26 -70q-39 29 -85 29q-52 0 -78.5 -31t-26.5 -82v-89h153v-63h-153v-129q0 -101 -45 -163.5t-156 -75.5l-9 65q63 8 92.5 48.5t29.5 120.5v134h-113v63h113v89q0 81 54 132.5t131 51.5q67 0 119 -30z" />
    <glyph glyph-name="circumflex" unicode="&#x2c6;" 
d="M412 531h-72l-91 120l-89 -120h-73l118 175h89z" />
    <glyph glyph-name="circumflex" unicode="&#x302;" 
d="M412 531h-72l-91 120l-89 -120h-73l118 175h89z" />
    <glyph glyph-name="caron" unicode="&#x2c7;" 
d="M414 706l-120 -175h-89l-120 175h75l91 -123l89 123h74z" />
    <glyph glyph-name="caron" unicode="&#x30c;" 
d="M414 706l-120 -175h-89l-120 175h75l91 -123l89 123h74z" />
    <glyph glyph-name="breve" unicode="&#x2d8;" 
d="M406 697q-16 -137 -155 -137q-141 0 -157 137h58q14 -76 98 -76t98 76h58z" />
    <glyph glyph-name="breve" unicode="&#x306;" 
d="M406 697q-16 -137 -155 -137q-141 0 -157 137h58q14 -76 98 -76t98 76h58z" />
    <glyph glyph-name="dotaccent" unicode="&#x2d9;" 
d="M305 657q0 -24 -14.5 -39t-39.5 -15q-26 0 -41.5 15t-15.5 39t15.5 39t41.5 15q25 0 39.5 -15t14.5 -39z" />
    <glyph glyph-name="dotaccent" unicode="&#x307;" 
d="M305 657q0 -24 -14.5 -39t-39.5 -15q-26 0 -41.5 15t-15.5 39t15.5 39t41.5 15q25 0 39.5 -15t14.5 -39z" />
    <glyph glyph-name="ring" unicode="&#x2da;" 
d="M353 646q0 -43 -27 -72.5t-76 -29.5q-50 0 -76.5 28.5t-26.5 71.5q0 44 26.5 72t76.5 28t76.5 -27.5t26.5 -70.5zM301 645q0 24 -12.5 41t-38.5 17t-38.5 -17.5t-12.5 -41.5t12 -41t39 -17q26 0 38.5 18t12.5 41z" />
    <glyph glyph-name="ring" unicode="&#x30a;" 
d="M353 646q0 -43 -27 -72.5t-76 -29.5q-50 0 -76.5 28.5t-26.5 71.5q0 44 26.5 72t76.5 28t76.5 -27.5t26.5 -70.5zM301 645q0 24 -12.5 41t-38.5 17t-38.5 -17.5t-12.5 -41.5t12 -41t39 -17q26 0 38.5 18t12.5 41z" />
    <glyph glyph-name="ogonek" unicode="&#x2db;" 
d="M325 -131l15 -55q-38 -22 -79 -22q-44 0 -72.5 24t-28.5 66q0 61 64 128h55q-56 -61 -56 -105q0 -25 14.5 -38t37.5 -13q25 0 50 15z" />
    <glyph glyph-name="ogonek" unicode="&#x328;" 
d="M325 -131l15 -55q-38 -22 -79 -22q-44 0 -72.5 24t-28.5 66q0 61 64 128h55q-56 -61 -56 -105q0 -25 14.5 -38t37.5 -13q25 0 50 15z" />
    <glyph glyph-name="tilde" unicode="&#x2dc;" 
d="M423 697q-19 -122 -100 -122q-27 0 -73 26t-66 26q-37 0 -50 -61h-58q19 123 99 123q27 0 73 -26t67 -26q35 0 50 60h58z" />
    <glyph glyph-name="tilde" unicode="&#x303;" 
d="M423 697q-19 -122 -100 -122q-27 0 -73 26t-66 26q-37 0 -50 -61h-58q19 123 99 123q27 0 73 -26t67 -26q35 0 50 60h58z" />
    <glyph glyph-name="hungarumlaut" unicode="&#x2dd;" 
d="M454 706l-151 -175h-74l117 175h108zM271 706l-151 -175h-75l117 175h109z" />
    <glyph glyph-name="hungarumlaut" unicode="&#x30b;" 
d="M454 706l-151 -175h-74l117 175h108zM271 706l-151 -175h-75l117 175h109z" />
    <glyph glyph-name="pi" unicode="&#x3c0;" horiz-adv-x="531" 
d="M523 396h-78v-396h-87v396h-166q0 -186 -39 -396h-89q39 184 39 396h-81v70h501v-70z" />
    <glyph glyph-name="endash" unicode="&#x2013;" 
d="M490 198h-480v73h480v-73z" />
    <glyph glyph-name="emdash" unicode="&#x2014;" horiz-adv-x="1000" 
d="M990 198h-980v73h980v-73z" />
    <glyph glyph-name="quoteleft" unicode="&#x2018;" horiz-adv-x="250" 
d="M216 740q-80 -98 -80 -180q0 -34 16 -72h-89q-12 26 -12 58q0 107 87 194h78z" />
    <glyph glyph-name="quoteright" unicode="&#x2019;" horiz-adv-x="250" 
d="M199 682q0 -108 -87 -195h-79q81 98 81 179q0 36 -16 74h89q12 -34 12 -58z" />
    <glyph glyph-name="quotesinglbase" unicode="&#x201a;" horiz-adv-x="250" 
d="M199 54q0 -107 -87 -194h-79q81 98 81 180q0 34 -16 72h89q12 -31 12 -58z" />
    <glyph glyph-name="quotedblleft" unicode="&#x201c;" horiz-adv-x="444" 
d="M420 740q-81 -98 -81 -180q0 -37 16 -72h-89q-12 31 -12 58q0 107 87 194h79zM223 740q-80 -98 -80 -180q0 -34 16 -72h-89q-12 26 -12 58q0 107 87 194h78z" />
    <glyph glyph-name="quotedblright" unicode="&#x201d;" horiz-adv-x="444" 
d="M387 682q0 -107 -89 -194h-78q81 96 81 179q0 35 -16 73h89q13 -28 13 -58zM190 682q0 -109 -87 -194h-78q80 95 80 179q0 38 -16 73h89q12 -26 12 -58z" />
    <glyph glyph-name="quotedblbase" unicode="&#x201e;" horiz-adv-x="444" 
d="M190 54q0 -109 -87 -194h-78q80 96 80 180q0 37 -16 72h89q12 -26 12 -58zM387 54q0 -107 -89 -194h-78q81 98 81 180q0 34 -16 72h89q13 -28 13 -58z" />
    <glyph glyph-name="dagger" unicode="&#x2020;" 
d="M494 388h-200l-6 -528h-78q-5 343 -5 528h-200v73h200l5 245h78q5 -163 6 -245h200v-73z" />
    <glyph glyph-name="daggerdbl" unicode="&#x2021;" 
d="M495 403h-201v-240h200v-73h-200l-5 -230h-78q-5 149 -6 230h-200v73h200v240h-199v73h199l6 230h78q5 -149 5 -230h201v-73z" />
    <glyph glyph-name="bullet" unicode="&#x2022;" horiz-adv-x="300" 
d="M274 238q0 -54 -34.5 -90.5t-88.5 -36.5t-89 36.5t-35 90.5t34.5 88.5t89.5 34.5q54 0 88.5 -35t34.5 -88z" />
    <glyph glyph-name="ellipsis" unicode="&#x2026;" horiz-adv-x="1000" 
d="M872 52q0 -26 -15.5 -42t-42.5 -16t-42.5 16t-15.5 42q0 25 15.5 41t42.5 16t42.5 -16t15.5 -41zM558 52q0 -26 -15.5 -42t-42.5 -16t-43 16t-16 42q0 25 16 41t43 16t42.5 -16t15.5 -41zM244 52q0 -26 -15.5 -42t-42.5 -16t-43 16t-16 42q0 25 16 41t43 16t42.5 -16
t15.5 -41z" />
    <glyph glyph-name="perthousand" unicode="&#x2030;" horiz-adv-x="1264" 
d="M692 706l-415 -706h-81l416 706h80zM855 230q0 -42 -7 -80.5t-23.5 -77t-50.5 -61.5t-82 -23t-82 23t-50.5 61.5t-23.5 76.5t-7 81q0 106 41 174.5t123 68.5q39 0 69 -15.5t47.5 -40t28 -58t14 -64.5t3.5 -65zM775 230q0 179 -83 179t-83 -179q0 -30 3 -57.5t11.5 -57
t26 -47.5t42.5 -18q40 0 61.5 51.5t21.5 128.5zM361 477q0 -42 -7 -80.5t-24 -77t-51 -61.5t-82 -23t-82 23t-50.5 61.5t-23.5 76.5t-7 81q0 106 41 174.5t123 68.5q49 0 83 -22.5t50.5 -61t23 -77t6.5 -82.5zM281 477q0 179 -84 179q-25 0 -43 -17.5t-26 -47.5t-11 -57
t-3 -57t3.5 -57.5t11.5 -57t26 -47.5t43 -18q40 0 61.5 51.5t21.5 128.5zM1230 230q0 -42 -7 -80.5t-24 -77t-51 -61.5t-82 -23t-82 23t-50.5 61.5t-23.5 76.5t-7 81q0 106 41.5 174.5t123.5 68.5q39 0 69 -15.5t47.5 -40t28 -58t14 -64.5t3.5 -65zM1150 230q0 179 -84 179
q-82 0 -82 -179q0 -30 3 -57.5t11.5 -57t26 -47.5t42.5 -18q40 0 61.5 51.5t21.5 128.5z" />
    <glyph glyph-name="guilsinglleft" unicode="&#x2039;" horiz-adv-x="265" 
d="M248 35h-79l-152 194l152 194h79l-133 -194z" />
    <glyph glyph-name="guilsinglright" unicode="&#x203a;" horiz-adv-x="265" 
d="M248 229l-152 -194h-79l132 194l-132 194h79z" />
    <glyph glyph-name="fraction" unicode="&#x2044;" horiz-adv-x="252" 
d="M375 706l-416 -706h-82l416 706h82z" />
    <glyph glyph-name="Euro" unicode="&#x20ac;" 
d="M15 333v62h66q23 94 84 153t159 59q97 0 159 -55l-33 -68q-57 49 -120 49q-122 0 -158 -138h233v-62h-243q-2 -15 -2 -44q0 -21 1 -30h244v-62h-234q18 -66 60.5 -104t105.5 -38q64 0 118 49l30 -66q-74 -57 -159 -57q-99 0 -163 59t-85 157h-63v62h54v28q0 16 2 46h-56z
" />
    <glyph glyph-name="published" unicode="&#x2117;" horiz-adv-x="827" 
d="M791 354q0 -161 -107.5 -268.5t-269.5 -107.5q-163 0 -270.5 107t-107.5 269q0 156 107.5 266t270.5 110q162 0 269.5 -110.5t107.5 -265.5zM733 354q0 139 -93 231.5t-226 92.5q-134 0 -227 -92.5t-93 -231.5q0 -141 92.5 -233.5t227.5 -92.5t227 93t92 233zM611 438
q0 -156 -194 -156h-53v-174h-77v475h133q191 0 191 -145zM535 435q0 93 -120 93h-51v-191h46q125 0 125 98z" />
    <glyph glyph-name="published" unicode="&#xe039;" horiz-adv-x="827" 
d="M791 354q0 -161 -107.5 -268.5t-269.5 -107.5q-163 0 -270.5 107t-107.5 269q0 156 107.5 266t270.5 110q162 0 269.5 -110.5t107.5 -265.5zM733 354q0 139 -93 231.5t-226 92.5q-134 0 -227 -92.5t-93 -231.5q0 -141 92.5 -233.5t227.5 -92.5t227 93t92 233zM611 438
q0 -156 -194 -156h-53v-174h-77v475h133q191 0 191 -145zM535 435q0 93 -120 93h-51v-191h46q125 0 125 98z" />
    <glyph glyph-name="trademark" unicode="&#x2122;" horiz-adv-x="906" 
d="M847 271h-73l-11 286q-1 35 1 69h-2q-7 -33 -20 -72l-99 -283h-71l-100 290q-13 39 -18 64h-2q0 -6 1 -28.5t1 -35.5l-6 -290h-65l11 435h97l98 -276q12 -33 22 -82h2q7 35 23 83l96 275h98zM348 646h-141v-375h-75v375h-138v60h354v-60z" />
    <glyph glyph-name="Omega" unicode="&#x2126;" horiz-adv-x="705" 
d="M677 0h-273v160q84 16 124 81t40 156q0 104 -53 174.5t-162 70.5q-110 0 -162.5 -70t-52.5 -175q0 -89 40.5 -154.5t123.5 -82.5v-160h-273v79h208v25q-96 28 -148.5 102t-52.5 193q0 68 18.5 124.5t49.5 93.5t72.5 62.5t85.5 36.5t91 11q145 0 230.5 -87.5t85.5 -241.5
q0 -229 -200 -294v-25h208v-79z" />
    <glyph glyph-name="partialdiff" unicode="&#x2202;" horiz-adv-x="528" 
d="M369 233q0 45 -10.5 82t-38.5 64.5t-71 27.5q-64 0 -94.5 -51t-30.5 -121q0 -45 10 -82.5t38.5 -65.5t72.5 -28q64 0 94 52t30 122zM57 733q44 16 104 16q58 0 110 -28t95.5 -83t69 -148.5t25.5 -212.5q0 -126 -53.5 -210t-162.5 -84q-104 0 -158 72t-54 179q0 65 20 119
t68.5 92t118.5 38q76 0 113 -51q-17 107 -70.5 174t-129.5 67q-45 0 -82 -18z" />
    <glyph glyph-name="Delta" unicode="&#x2206;" horiz-adv-x="618" 
d="M615 0h-612l251 708h107zM482 85l-141 403q-24 69 -35 124h-3q-7 -41 -36 -125l-139 -402h354z" />
    <glyph glyph-name="product" unicode="&#x220f;" horiz-adv-x="688" 
d="M658 617h-72v-753h-99v753h-286v-753h-99v753h-72v89h628v-89z" />
    <glyph glyph-name="summation" unicode="&#x2211;" horiz-adv-x="551" 
d="M521 -136h-491v78l269 352l-255 336v76h477v-85h-367l251 -327l-265 -345h381v-85z" />
    <glyph glyph-name="minus" unicode="&#x2212;" 
d="M480 233h-461v79h461v-79z" />
    <glyph glyph-name="radical" unicode="&#x221a;" 
d="M523 706l-219 -706h-81l-145 429h-103v79h170l120 -384l177 582h81z" />
    <glyph glyph-name="infinity" unicode="&#x221e;" horiz-adv-x="686" 
d="M661 273q0 -81 -41.5 -130.5t-110.5 -49.5q-91 0 -161 124q-73 -123 -170 -123q-75 0 -114 51t-39 128q0 74 40.5 125.5t112.5 51.5q54 0 92.5 -32.5t74.5 -89.5q35 60 69.5 91t88.5 31q75 0 116.5 -50t41.5 -127zM587 272q0 42 -22.5 69.5t-64.5 27.5q-35 0 -59 -25.5
t-48 -72.5q24 -46 48.5 -72t58.5 -26q42 0 64.5 28t22.5 71zM300 271q-28 49 -53.5 74t-64.5 25t-60.5 -29.5t-21.5 -68.5q0 -40 21.5 -69.5t60.5 -29.5q38 0 65 25.5t53 72.5z" />
    <glyph glyph-name="integral" unicode="&#x222b;" horiz-adv-x="393" 
d="M470 720l-29 -76q-39 29 -89 29q-54 0 -83.5 -34.5t-29.5 -88.5v-568q0 -85 -52 -141t-139 -56q-75 0 -128 31l29 72q39 -29 88 -29q55 0 84.5 34.5t29.5 88.5v572q0 85 53 141t140 56q73 0 126 -31z" />
    <glyph glyph-name="approxequal" unicode="&#x2248;" 
d="M474 375q-51 -54 -116 -54q-38 0 -110 32t-106 32q-63 0 -117 -63v86q50 55 116 55q39 0 110.5 -32.5t105.5 -32.5q63 0 117 63v-86zM474 138q-52 -55 -116 -55q-38 0 -110 32.5t-106 32.5q-63 0 -117 -64v86q49 56 116 56q39 0 110.5 -33t105.5 -33q62 0 117 64v-86z
" />
    <glyph glyph-name="notequal" unicode="&#x2260;" 
d="M481 114h-250l-50 -128h-72l49 128h-140v82h173l60 157h-233v81h267l52 134h73l-52 -134h123v-81h-156l-61 -157h217v-82z" />
    <glyph glyph-name="lessequal" unicode="&#x2264;" 
d="M480 95l-461 165v80l461 165v-82l-364 -123l364 -123v-82zM480 0h-461v78h461v-78z" />
    <glyph glyph-name="greaterequal" unicode="&#x2265;" 
d="M480 260l-461 -165v82l364 123l-364 123v82l461 -165v-80zM480 0h-461v78h461v-78z" />
    <glyph glyph-name="lozenge" unicode="&#x25ca;" 
d="M519 270l-268 -303l-270 303l270 304zM427 270l-176 197l-177 -197l177 -197z" />
    <glyph glyph-name="Euro.LT" unicode="&#xe03b;" 
d="M495 663l-38 -82q-49 56 -119 56q-65 0 -105.5 -47t-51.5 -117h248v-70h-257q-3 -23 -3 -44q0 -23 1 -34h259v-70h-250q9 -78 50.5 -131t111.5 -53q73 0 121 57l32 -76q-71 -69 -164 -69q-110 0 -172.5 76t-79.5 196h-57v70h49q-1 9 -1 29q0 33 2 49h-50v70h59
q19 110 85 181t170 71q90 0 160 -62z" />
    <glyph glyph-name="dollar.LT" unicode="&#xe03c;" 
d="M467 204q0 -87 -52.5 -138.5t-134.5 -62.5v-118h-60v115q-104 -3 -191 57l34 80q69 -57 157 -55v238q-35 15 -55.5 25t-47 27.5t-40.5 35.5t-24.5 46t-10.5 62q0 75 51 127t133 63v110h60v-110q95 0 168 -52l-36 -78q-57 48 -132 50v-220q37 -16 57 -26t47.5 -28.5
t41.5 -37t24.5 -47t10.5 -63.5zM226 425v201q-44 -8 -66.5 -35t-22.5 -62q0 -41 22 -62.5t67 -41.5zM371 189q0 44 -22.5 67.5t-68.5 42.5v-214q39 9 65 35t26 69z" />
    <glyph glyph-name="cent.LT" unicode="&#xe03d;" 
d="M427 203l35 -74q-47 -47 -133 -53v-119h-62v118q-102 10 -160.5 87t-58.5 187t56 193.5t163 93.5v121h62v-121q87 -6 133 -51l-41 -81q-36 38 -92 43v-385q58 4 98 41zM267 166v380q-58 -13 -88.5 -67t-30.5 -128q0 -69 33 -120t86 -65z" />
    <glyph glyph-name="sterling.LT" unicode="&#xe03e;" 
d="M491 0h-444v79q49 17 85 57t36 87q0 35 -25 87h-118v70h82q-33 69 -33 127q0 91 65 154.5t158 63.5q117 0 185 -91l-53 -65q-45 72 -125 72q-59 0 -95 -37.5t-36 -94.5q0 -56 39 -129h200v-70h-168q19 -41 19 -78q0 -83 -88 -146v-2h316v-84z" />
    <glyph glyph-name="florin.LT" unicode="&#xe03f;" 
d="M266 0h-99v311h-119v70h119v140q0 89 57 147t145 58q66 0 121 -30l-28 -84q-41 30 -82 30q-56 0 -85 -37.5t-29 -94.5v-129h158v-70h-158v-311z" />
    <glyph glyph-name="yen.LT" unicode="&#xe040;" 
d="M42 332h135l-168 374h111l138 -341l129 341h104l-158 -374h131v-70h-159v-79h159v-70h-159v-113h-99v113h-164v70h164v79h-164v70z" />
    <glyph glyph-name="zero.LT" unicode="&#xe041;" 
d="M481 354q0 -52 -5.5 -100t-21.5 -99.5t-40.5 -88.5t-67 -61t-97.5 -24q-68 0 -115.5 35t-71 93.5t-33.5 118t-10 126.5q0 167 59.5 270t172.5 103q56 0 98.5 -24t67 -60.5t39.5 -88t20 -99t5 -101.5zM378 354q0 45 -2 79t-9.5 76t-20.5 69t-37.5 45.5t-58.5 18.5
q-128 0 -128 -288q0 -289 128 -289q62 0 95 78.5t33 210.5z" />
    <glyph glyph-name="one.LT" unicode="&#xe042;" 
d="M339 0h-101v601q-55 -42 -163 -92l-34 76q120 52 213 121h85v-706z" />
    <glyph glyph-name="two.LT" unicode="&#xe043;" 
d="M468 0h-419v66q8 63 54.5 122t131.5 134q52 46 83 90t31 97q0 60 -37.5 95.5t-92.5 35.5q-86 0 -141 -80l-54 67q45 51 94.5 74.5t117.5 23.5q90 0 153.5 -53.5t63.5 -151.5q0 -40 -10 -73t-35 -65.5t-42 -50t-55 -52.5l-4 -4t-3.5 -3t-4 -3.5l-3.5 -3.5
q-129 -114 -137 -181h309v-84z" />
    <glyph glyph-name="three.LT" unicode="&#xe044;" 
d="M462 209q0 -97 -72.5 -161.5t-185.5 -64.5q-114 0 -191 68l44 74q56 -60 142 -60q72 0 116 40t44 103q0 65 -46 96.5t-115 31.5h-71v84h72q60 0 99.5 30t39.5 83q0 47 -35.5 78.5t-93.5 31.5q-87 0 -140 -64l-41 71q83 75 200 75q94 0 152.5 -51t58.5 -128
q0 -56 -31.5 -98.5t-87.5 -61.5v-2q63 -12 102.5 -58.5t39.5 -116.5z" />
    <glyph glyph-name="four.LT" unicode="&#xe045;" 
d="M488 164h-79v-164h-95v164h-298v92l272 450h121v-463h79v-79zM314 243v359h-2q-7 -19 -47 -91l-163 -268h212z" />
    <glyph glyph-name="five.LT" unicode="&#xe046;" 
d="M461 221q0 -103 -66.5 -170.5t-174.5 -67.5q-117 0 -193 67l44 75q62 -60 145 -60q61 0 101.5 39t40.5 107q0 69 -48.5 111t-138.5 43q-57 2 -98 0l26 341h338v-84h-257l-13 -175h30q123 -3 193.5 -65t70.5 -161z" />
    <glyph glyph-name="six.LT" unicode="&#xe047;" 
d="M485 217q0 -107 -67.5 -170.5t-160.5 -63.5q-62 0 -108.5 25t-73 69.5t-39 99.5t-12.5 121q0 119 32 212.5t105 154t179 60.5q58 0 101 -15l-18 -85q-41 18 -88 18q-102 0 -157 -81.5t-59 -199.5q68 65 160 65q91 0 148.5 -56.5t57.5 -153.5zM393 207q0 62 -38 102
t-101 40q-45 0 -78 -18.5t-50 -42.5q-8 -12 -8 -49q0 -74 35.5 -125.5t103.5 -51.5q58 0 97 40.5t39 104.5z" />
    <glyph glyph-name="seven.LT" unicode="&#xe048;" 
d="M478 624q-82 -154 -117 -220.5t-76.5 -156.5t-55.5 -144t-14 -103h-104q0 117 80 271l185 351h-353v84h455v-82z" />
    <glyph glyph-name="eight.LT" unicode="&#xe049;" 
d="M475 190q0 -95 -64.5 -152t-164.5 -57q-99 0 -160 54.5t-61 138.5q0 124 140 200q-120 67 -120 166q0 84 60.5 135.5t147.5 51.5q86 0 144 -44.5t58 -127.5q0 -103 -122 -173q69 -35 105.5 -79.5t36.5 -112.5zM363 549q0 49 -31 76.5t-80 27.5q-55 0 -83.5 -29.5
t-28.5 -73.5q0 -46 31.5 -77t87.5 -58q104 51 104 134zM376 184q0 52 -35.5 88t-100.5 66q-52 -23 -85.5 -62.5t-33.5 -91.5q0 -57 35.5 -92.5t91.5 -35.5q58 0 93 36t35 92z" />
    <glyph glyph-name="nine.LT" unicode="&#xe04a;" 
d="M15 489q0 107 67.5 170.5t160.5 63.5q62 0 108.5 -25t73 -69.5t39 -99.5t12.5 -121q0 -119 -32 -212.5t-105 -154t-179 -60.5q-58 0 -101 15l18 85q41 -18 88 -18q102 0 157 81.5t59 199.5q-68 -65 -160 -65q-91 0 -148.5 56.5t-57.5 153.5zM107 499q0 -62 38 -102
t101 -40q45 0 78 18.5t50 42.5q8 12 8 49q0 74 -35.5 125.5t-103.5 51.5q-58 0 -97 -40.5t-39 -104.5z" />
    <glyph glyph-name="alt01" unicode="&#xe0bb;" horiz-adv-x="719" 
d="M273 479v1q-37 30 -37 77q0 57 48 95.5t125 38.5q96 0 159 -53v-181h136v-71h-136v-254q0 -73 73 -73q34 0 62 13l13 -72q-43 -15 -104 -15t-96.5 34t-35.5 96v483q-28 26 -75 26q-45 0 -70 -24t-25 -59q0 -53 50 -81q26 -14 37 -25l-36 -77q-40 42 -101 42
q-67 0 -101.5 -48t-34.5 -123q0 -72 39.5 -117.5t101.5 -45.5q59 0 102 38l31 -70q-22 -21 -61.5 -34.5t-80.5 -13.5q-105 0 -164 68.5t-59 172.5q0 66 22 121.5t73.5 94t126.5 38.5q8 0 18 -2z" />
    <glyph glyph-name="alt02" unicode="&#xe0bc;" horiz-adv-x="675" 
d="M205 481q10 0 20 -2v1q-33 35 -33 77q0 57 48 95.5t125 38.5q96 0 159 -53v-181h136v-71h-136v-254q0 -36 19.5 -54.5t53.5 -18.5t62 13l13 -72q-43 -15 -104 -15t-96.5 34t-35.5 96v483q-28 26 -75 26q-44 0 -69.5 -24.5t-25.5 -62.5q0 -50 47 -82l18 -14l-32 -69
q-41 35 -99 35q-42 0 -63 -16t-21 -42t21 -40.5t68 -31.5q69 -23 103 -56t34 -91q0 -65 -51 -105t-131 -40q-85 0 -137 43l32 69q47 -39 111 -39q92 0 92 61q0 30 -23 46.5t-80 35.5q-60 21 -90.5 53t-30.5 83q0 59 46.5 101.5t124.5 42.5z" />
    <glyph glyph-name="alt03" unicode="&#xe0bd;" horiz-adv-x="797" 
d="M770 72l7 -70q-34 -10 -65 -10q-74 0 -79 69q-60 -74 -146 -74q-62 0 -101 37.5t-39 94.5q0 155 238 155q26 0 33.5 2.5t7.5 12.5v28q0 51 -47 69t-177 18q-104 0 -147.5 -11t-73.5 -44q-17 -19 -17 -56v-293h-88v356q0 46 -26 46q-10 0 -22 -5l-7 65q24 11 50 11
q77 0 80 -82q40 54 96.5 71t169.5 17q168 0 234 -30t66 -124v-227q0 -31 27 -31q11 0 26 5zM625 156v49h-44q-138 0 -138 -79q0 -29 20 -45.5t54 -16.5q54 0 88 40q20 23 20 52z" />
    <glyph glyph-name="alt04" unicode="&#xe0be;" horiz-adv-x="512" 
d="M436 466v-357q0 -45 27 -45q12 0 21 4l7 -65q-22 -10 -53 -10q-81 0 -85 80q-57 -87 -144 -87q-86 0 -134.5 72.5t-48.5 174.5q0 104 55 176t159 72q74 0 107 -37v22h89zM348 169v176q0 29 -24.5 47t-72.5 18q-69 0 -101.5 -45t-32.5 -118q0 -77 30 -128t92 -51
q49 0 87 44q22 26 22 57z" />
    <glyph glyph-name="alt05" unicode="&#xe0bf;" horiz-adv-x="515" 
d="M36 202q0 69 39 113.5t104 56.5v2q-57 21 -88.5 63t-31.5 100q0 77 62.5 132.5t157.5 55.5q126 0 200 -74l-43 -71q-50 63 -144 63q-62 0 -97 -32t-35 -79q0 -52 39.5 -82.5t99.5 -30.5h109v-84h-108q-161 0 -161 -129q0 -62 43.5 -101.5t117.5 -39.5q92 0 149 59l41 -71
q-77 -70 -197 -70q-115 0 -186 59.5t-71 159.5z" />
    <glyph glyph-name="alt06" unicode="&#xe0c0;" horiz-adv-x="695" 
d="M695 326l-333 -335l-58 60l160 159q12 12 82 75q-39 -3 -112 -3h-434v88h434q41 0 76 -1t36 -1q-30 22 -82 75l-160 158l58 59z" />
    <glyph glyph-name="alt07" unicode="&#xe0c1;" horiz-adv-x="695" 
d="M348 675l333 -335l-58 -60l-160 159q-3 3 -75 83q3 -39 3 -112v-433h-86v433q0 42 1 76.5t1 35.5q-36 -44 -75 -83l-159 -159l-58 60z" />
    <glyph glyph-name="alt08" unicode="&#xe0c2;" horiz-adv-x="695" 
d="M0 326l334 334l58 -59l-160 -159q-40 -41 -82 -75q4 0 18 0.5t39 1.5t55 1h433v-88h-433q-82 0 -112 2q38 -31 82 -75l160 -158l-58 -60z" />
    <glyph glyph-name="numbersign.LT" unicode="&#xe14d;" 
d="M366 233l-2 -5h79l-15 -58h-80l-49 -170h-67l47 170h-116l-49 -170h-67l47 170h-89l16 58h89l35 129h-89l16 59h89l48 173h65l-45 -173h117l48 173h65l-45 -173h80l-15 -59h-81zM181 233l-2 -5h116l35 129h-117z" />
    <glyph glyph-name="alt09" unicode="&#xe163;" horiz-adv-x="695" 
d="M348 -23l-333 335l58 61l160 -159q18 -18 45.5 -49.5t29.5 -33.5q0 4 -1 17.5t-1.5 38.5t-0.5 56v432h86v-432q0 -82 -2 -112q31 38 75 83l159 158l58 -60z" />
    </font>
</defs>
</svg>
