<?xml version="1.0" standalone="no"?>
<!DOCTYPE svg PUBLIC "-//W3C//DTD SVG 20010904//EN"
 "http://www.w3.org/TR/2001/REC-SVG-20010904/DTD/svg10.dtd">
<svg version="1.0" xmlns="http://www.w3.org/2000/svg"
 width="512.000000pt" height="512.000000pt" viewBox="0 0 512.000000 512.000000"
 preserveAspectRatio="xMidYMid meet">
<metadata>
Created by potrace 1.11, written by Peter Selinger 2001-2013
</metadata>
<g transform="translate(0.000000,512.000000) scale(0.100000,-0.100000)"
fill="#000000" stroke="none">
<path d="M2400 5114 c-359 -28 -671 -111 -969 -260 -278 -138 -485 -287 -686
-495 -404 -417 -634 -879 -722 -1456 -23 -150 -23 -536 0 -686 45 -296 123
-546 244 -788 288 -576 738 -995 1325 -1234 746 -303 1556 -249 2247 150 76
44 80 45 163 45 47 0 107 7 134 15 27 8 52 15 56 15 10 0 49 -85 64 -143 8
-28 17 -103 20 -165 7 -107 8 -113 28 -110 18 3 21 11 23 58 5 106 24 256 44
340 19 80 75 220 88 220 3 0 28 -7 54 -15 72 -22 213 -29 292 -16 173 30 264
133 300 338 24 136 15 427 -14 456 -12 12 -107 11 -204 -2 -31 -4 -57 -7 -57
-6 0 1 22 49 49 106 96 203 182 497 218 744 26 179 23 515 -5 700 -68 440
-228 824 -486 1170 -99 133 -314 353 -446 459 -366 292 -799 476 -1269 541
-115 16 -391 26 -491 19z m774 -1588 c24 -10 37 -24 45 -48 12 -38 9 -1432 -4
-1461 -18 -42 -22 -42 -755 -47 -404 -3 -711 -9 -720 -14 -8 -5 -90 -72 -181
-148 -92 -76 -170 -138 -173 -138 -3 0 -7 66 -8 148 l-3 147 -162 5 c-152 5
-164 6 -185 28 l-23 23 0 735 0 736 28 24 28 24 1040 0 c870 0 1045 -2 1073
-14z m1225 -2956 c-20 -47 -51 -120 -69 -163 l-32 -77 -37 62 -38 61 19 60
c10 32 18 75 18 94 0 29 10 45 62 99 l62 65 26 -58 26 -58 -37 -85z"/>
</g>
</svg>
