<?xml version="1.0" standalone="no"?>
<!DOCTYPE svg PUBLIC "-//W3C//DTD SVG 20010904//EN"
 "http://www.w3.org/TR/2001/REC-SVG-20010904/DTD/svg10.dtd">
<svg version="1.0" xmlns="http://www.w3.org/2000/svg"
 width="512.000000pt" height="512.000000pt" viewBox="0 0 512.000000 512.000000"
 preserveAspectRatio="xMidYMid meet">
<metadata>
Created by potrace 1.11, written by Peter Selinger 2001-2013
</metadata>
<g transform="translate(0.000000,512.000000) scale(0.100000,-0.100000)"
fill="#000000" stroke="none">
<path d="M2359 4291 c-3 -100 -1 -292 4 -297 8 -8 304 -7 317 1 6 4 10 69 10
160 0 138 -2 154 -17 159 -10 3 -84 5 -165 4 l-148 -1 -1 -26z"/>
<path d="M2827 4313 c-4 -3 -7 -51 -7 -105 0 -89 2 -99 18 -96 13 2 17 13 16
41 -1 20 2 37 5 38 3 1 55 2 116 3 95 1 110 4 113 19 3 15 -8 17 -117 17
l-121 0 4 24 c8 44 -8 79 -27 59z"/>
<path d="M3243 4313 c-10 -4 -13 -192 -13 -898 0 -845 -1 -893 -18 -897 -9 -3
-26 -1 -37 3 -29 11 -113 11 -117 -1 -2 -6 -28 -6 -73 1 -38 6 -80 12 -93 13
-12 2 -26 -3 -31 -12 -5 -10 -13 -12 -22 -6 -8 5 -27 10 -44 11 -82 7 -105 15
-105 37 0 11 -1 312 -1 667 1 500 -2 649 -12 656 -14 11 -302 11 -313 0 -4 -3
-7 -321 -8 -704 l-1 -698 -27 -3 c-16 -2 -28 -8 -28 -13 0 -5 -11 -9 -25 -9
-14 0 -25 -4 -25 -10 0 -15 78 -12 83 3 3 9 7 9 20 -2 9 -7 14 -17 12 -22 -3
-4 3 -12 12 -18 14 -8 15 -11 3 -12 -8 -1 -23 -1 -32 0 -10 1 -18 -4 -18 -13
0 -10 6 -13 17 -9 11 4 14 3 9 -5 -4 -7 -18 -12 -32 -12 -13 0 -24 -4 -24 -10
0 -11 39 -13 64 -4 8 3 13 11 10 19 -3 7 4 15 16 18 12 3 19 10 15 16 -4 7 4
11 19 11 14 0 26 5 26 10 0 13 77 13 85 0 3 -5 -4 -10 -15 -10 -14 0 -24 -8
-27 -21 -3 -12 -11 -18 -19 -15 -8 3 -14 -1 -14 -10 0 -10 6 -14 15 -10 8 3
15 1 15 -4 0 -6 -11 -10 -25 -10 -14 0 -25 -5 -25 -10 0 -6 16 -10 35 -8 30 2
34 5 29 21 -4 12 -2 17 4 13 6 -3 14 -1 18 5 3 6 0 15 -7 20 -10 6 -4 9 19 9
32 0 44 14 20 23 -7 2 -2 5 12 5 51 0 112 15 117 28 3 8 18 14 34 14 40 0 37
20 -3 21 -18 0 -26 3 -18 6 8 2 22 7 30 9 13 5 13 6 0 14 -13 8 -12 10 3 10
10 0 17 -8 17 -19 0 -19 29 -30 63 -23 13 3 16 9 12 20 -5 14 -4 15 6 5 20
-20 95 -17 103 3 4 9 9 14 13 11 3 -4 0 -13 -7 -22 -10 -12 -10 -15 4 -15 16
0 16 -2 2 -15 -8 -8 -29 -15 -46 -15 -18 0 -29 -4 -25 -10 6 -10 -7 -14 -33
-11 -7 1 -15 -5 -18 -14 -3 -8 -17 -15 -30 -15 -14 0 -24 -6 -24 -14 0 -8 -10
-16 -22 -19 -23 -4 -23 -4 2 -15 24 -10 24 -11 -10 -12 -33 -1 -34 -1 -16 -15
17 -13 18 -15 3 -15 -9 0 -17 -4 -17 -10 0 -11 30 -13 54 -4 9 3 13 10 10 15
-3 5 -11 6 -17 3 -7 -4 -8 -3 -4 2 5 5 14 9 20 9 7 0 11 9 9 19 -2 11 1 15 7
11 6 -3 14 1 17 9 3 9 12 16 19 16 7 0 15 5 17 11 2 5 12 11 21 13 10 1 22 7
25 12 4 5 16 10 27 12 11 2 32 8 47 14 15 5 34 8 43 4 11 -4 15 2 15 24 0 24
3 28 17 23 11 -4 12 -8 5 -11 -7 -2 -12 -8 -12 -14 0 -6 7 -8 15 -5 8 4 17 2
20 -2 5 -9 -24 -22 -60 -26 -10 -1 -21 -8 -23 -14 -2 -6 -13 -11 -24 -11 -10
0 -26 -7 -35 -15 -8 -8 -19 -13 -24 -10 -5 4 -9 0 -9 -8 0 -8 -7 -18 -16 -21
-8 -3 -12 -10 -9 -16 3 -5 1 -10 -4 -10 -6 0 -11 -4 -11 -10 0 -18 45 -11 63
10 9 11 17 25 17 30 0 6 7 10 15 10 8 0 15 5 15 10 0 6 9 10 20 10 11 0 20 5
20 10 0 6 11 10 24 10 13 0 26 5 28 11 2 5 18 11 36 11 17 1 32 5 32 10 0 4
18 8 40 8 36 0 55 13 30 22 -6 2 -1 9 9 15 15 9 22 10 27 1 4 -6 3 -8 -4 -4
-6 3 -13 2 -17 -4 -3 -5 -2 -10 4 -10 6 0 8 -6 5 -14 -3 -7 2 -16 10 -19 23
-9 20 -27 -5 -27 -11 0 -27 -7 -36 -15 -8 -8 -19 -13 -24 -10 -5 4 -9 1 -9 -5
0 -7 -10 -20 -21 -29 -16 -12 -20 -23 -15 -39 4 -12 12 -22 17 -22 5 0 9 -6 9
-14 0 -9 9 -12 28 -9 19 3 23 2 13 -5 -18 -13 0 -23 27 -15 25 6 30 23 7 23
-8 0 -15 5 -15 10 0 6 -6 10 -13 10 -7 0 -12 13 -12 29 -1 16 3 27 7 25 4 -3
8 2 8 10 0 9 7 16 15 16 8 0 15 5 15 10 0 6 9 10 20 10 11 0 20 4 20 9 0 5 12
11 28 13 15 3 35 9 46 13 14 6 18 5 14 -6 -2 -8 -17 -15 -32 -17 -21 -3 -25
-7 -17 -16 8 -9 5 -12 -12 -12 -13 1 -21 -4 -19 -11 1 -7 -4 -13 -12 -13 -9 0
-14 -9 -13 -20 1 -11 7 -20 14 -20 7 0 10 -7 7 -15 -5 -11 -2 -13 10 -9 11 4
16 2 14 -7 -2 -9 5 -13 21 -11 33 3 36 8 17 27 -15 15 -18 23 -15 41 0 4 -5
11 -13 15 -9 6 -7 9 10 9 12 0 22 5 22 10 0 6 9 10 20 10 11 0 20 5 20 10 0 6
8 10 18 10 10 0 22 4 27 9 15 13 74 21 80 11 4 -6 -7 -10 -24 -10 -17 0 -31
-4 -31 -10 0 -5 -7 -10 -16 -10 -17 0 -53 -38 -54 -56 0 -21 39 -56 60 -52 11
2 19 8 18 13 -2 6 -5 9 -8 8 -3 -1 -5 10 -4 25 2 41 3 42 19 42 8 0 15 5 15
10 0 6 9 10 20 10 11 0 20 5 20 10 0 6 9 10 21 10 11 0 29 5 40 10 15 8 19 7
19 -5 0 -8 -6 -15 -13 -15 -27 0 -68 -26 -73 -47 -9 -34 11 -61 41 -55 20 3
24 9 20 23 -9 29 4 59 26 59 10 0 19 5 19 10 0 6 10 10 23 10 13 0 27 4 32 9
16 14 79 25 71 12 -4 -6 -19 -11 -33 -11 -17 0 -23 -4 -20 -14 4 -10 0 -12
-13 -9 -22 6 -46 -15 -44 -37 3 -38 5 -41 32 -37 19 3 27 10 27 24 0 26 23 53
44 53 9 0 21 4 26 9 16 14 65 23 65 11 0 -5 -12 -10 -26 -10 -14 0 -23 -4 -19
-10 3 -5 -1 -10 -9 -10 -9 0 -17 -4 -17 -10 -5 -41 -3 -45 24 -45 24 -1 28 2
24 22 -2 14 0 20 6 16 6 -4 8 0 4 11 -4 11 -3 15 4 10 10 -6 28 0 81 27 11 5
18 3 22 -6 3 -9 -1 -15 -10 -15 -18 0 -44 -23 -44 -39 0 -6 14 -11 31 -11 17
0 28 4 24 10 -3 6 -1 10 5 10 6 0 8 5 5 10 -4 6 7 13 24 16 17 4 28 11 24 17
-3 5 0 7 8 5 8 -3 22 -1 33 4 12 7 22 6 30 -2 8 -9 7 -11 -4 -10 -27 4 -41 0
-35 -9 3 -5 -4 -12 -15 -16 -28 -9 -25 -25 5 -25 14 0 38 11 53 25 15 14 35
25 44 25 16 0 16 3 6 20 -11 17 -10 22 7 37 17 17 18 17 6 1 -16 -21 -6 -52
14 -45 9 4 12 1 8 -9 -3 -8 -8 -13 -10 -10 -7 6 -33 -19 -33 -32 0 -4 14 -7
31 -4 21 3 29 9 25 19 -3 8 -1 11 4 8 6 -3 23 2 40 11 16 10 33 14 37 10 4 -4
0 -12 -10 -17 -9 -6 -15 -14 -12 -19 6 -10 35 -3 82 21 41 21 63 24 63 9 0 -6
-5 -9 -11 -8 -6 2 -13 -2 -16 -9 -5 -13 27 -10 69 6 25 9 44 9 41 0 -1 -3 11
-6 28 -7 16 0 29 4 29 10 0 5 6 8 14 5 7 -3 19 0 26 6 10 9 14 9 17 0 6 -16
55 -17 71 -1 7 7 12 9 12 5 0 -4 9 -3 20 3 16 8 20 8 18 -2 -2 -9 8 -12 32
-10 19 1 68 4 108 5 61 3 75 7 88 25 8 12 23 22 32 21 12 0 11 -3 -5 -9 -13
-5 -23 -16 -23 -25 0 -13 8 -15 43 -9 23 4 51 6 62 5 56 -7 130 8 114 23 -2 2
-26 7 -53 10 -27 4 -83 16 -123 27 -40 11 -77 17 -83 14 -5 -3 -10 -1 -10 5 0
7 -8 9 -20 5 -13 -4 -20 -2 -20 6 0 7 -3 9 -7 6 -3 -4 -12 -2 -19 4 -8 7 -14
7 -19 -1 -5 -8 -11 -8 -21 1 -7 6 -21 9 -29 5 -9 -3 -13 -2 -10 4 3 6 -4 10
-17 10 -37 0 -50 15 -55 61 -8 90 -7 89 -69 89 -81 0 -100 14 -187 139 -82
116 -407 670 -407 692 0 11 52 73 300 359 84 96 174 200 200 230 26 30 73 84
104 120 31 36 55 72 54 80 -3 13 -32 15 -186 17 l-183 1 -117 -141 c-65 -78
-180 -218 -257 -312 -76 -93 -180 -219 -230 -279 l-90 -109 -3 413 c-1 285 -6
416 -13 421 -12 7 -287 9 -306 2z m625 -1294 c166 -288 204 -351 258 -421 l44
-58 -40 0 c-28 0 -40 -4 -40 -14 0 -11 -8 -12 -42 -4 -24 5 -51 7 -60 5 -10
-3 -18 -2 -18 1 0 11 -82 5 -89 -6 -3 -5 -15 -8 -26 -6 -11 2 -56 6 -99 10
-63 5 -77 4 -71 -6 6 -10 -2 -12 -40 -7 -26 4 -56 7 -66 7 -18 0 -19 13 -19
266 l0 265 87 100 c47 54 87 98 89 97 1 -2 61 -105 132 -229z m-713 -509 c-3
-5 -14 -10 -23 -9 -14 0 -13 2 3 9 27 11 27 11 20 0z m810 -8 c-3 -3 -11 0
-18 7 -9 10 -8 11 6 5 10 -3 15 -9 12 -12z m168 11 c-7 -2 -19 -2 -25 0 -7 3
-2 5 12 5 14 0 19 -2 13 -5z m565 -23 c2 -5 12 -6 22 -3 11 3 20 1 20 -3 0 -5
-13 -9 -29 -9 -16 -1 -27 3 -25 7 3 4 -4 8 -15 8 -11 0 -23 5 -26 10 -4 7 3 8
22 4 15 -4 29 -10 31 -14z m-1091 4 c-3 -3 -12 -4 -19 -1 -8 3 -5 6 6 6 11 1
17 -2 13 -5z m-483 -31 c-15 -7 -32 -12 -38 -9 -6 2 -3 5 7 5 9 1 17 7 17 15
0 9 7 12 20 9 19 -5 19 -7 -6 -20z m626 17 c0 -5 -4 -10 -10 -10 -5 0 -10 5
-10 10 0 6 5 10 10 10 6 0 10 -4 10 -10z m177 4 c-3 -3 -12 -4 -19 -1 -8 3 -5
6 6 6 11 1 17 -2 13 -5z m846 -8 c4 -10 1 -13 -8 -9 -8 3 -12 9 -9 14 7 12 11
11 17 -5z m38 -4 c-7 -2 -18 1 -23 6 -8 8 -4 9 13 5 13 -4 18 -8 10 -11z
m-1166 -2 c3 -5 1 -10 -4 -10 -6 0 -11 5 -11 10 0 6 2 10 4 10 3 0 8 -4 11
-10z m561 -5 c-15 -8 -33 -15 -40 -15 -16 0 36 28 54 29 8 0 2 -6 -14 -14z
m-489 -17 c-3 -8 -6 -5 -6 6 -1 11 2 17 5 13 3 -3 4 -12 1 -19z m340 16 c-3
-3 -12 -4 -19 -1 -8 3 -5 6 6 6 11 1 17 -2 13 -5z m800 0 c-3 -3 -12 -4 -19
-1 -8 3 -5 6 6 6 11 1 17 -2 13 -5z m-127 -14 c0 -5 -2 -10 -4 -10 -3 0 -8 5
-11 10 -3 6 -1 10 4 10 6 0 11 -4 11 -10z m-925 -10 c-3 -5 -11 -10 -16 -10
-6 0 -7 5 -4 10 3 6 11 10 16 10 6 0 7 -4 4 -10z m74 -9 c9 -17 8 -18 -11 -13
-13 3 -17 7 -10 10 7 2 10 8 6 13 -3 5 -3 9 0 9 3 0 10 -9 15 -19z m781 15 c0
-2 -7 -9 -15 -16 -13 -11 -14 -10 -9 4 5 14 24 23 24 12z m137 -2 c-3 -3 -12
-4 -19 -1 -8 3 -5 6 6 6 11 1 17 -2 13 -5z m-1144 -17 c4 -10 -2 -13 -20 -9
-18 3 -21 7 -11 13 18 12 25 11 31 -4z m517 -2 c10 -12 10 -15 -2 -15 -8 0
-15 7 -15 15 0 8 1 15 2 15 2 0 8 -7 15 -15z m-777 -2 c-7 -2 -19 -2 -25 0 -7
3 -2 5 12 5 14 0 19 -2 13 -5z m567 -3 c0 -5 -5 -10 -11 -10 -5 0 -7 5 -4 10
3 6 8 10 11 10 2 0 4 -4 4 -10z m300 -10 c0 -5 -4 -10 -10 -10 -5 0 -10 5 -10
10 0 6 5 10 10 10 6 0 10 -4 10 -10z"/>
<path d="M2948 4091 c-112 -40 -128 -49 -128 -68 0 -13 2 -23 3 -23 4 0 223
-75 250 -85 12 -5 17 -2 17 12 0 13 -12 23 -35 32 -34 12 -35 14 -35 65 0 50
1 52 35 65 24 8 35 19 35 32 0 24 10 26 -142 -30z m42 -70 l0 -39 -65 21 -65
21 53 17 c76 25 77 24 77 -20z"/>
<path d="M2940 3855 c-94 -34 -116 -46 -118 -63 -2 -12 -2 -22 0 -22 2 0 61
-20 131 -45 71 -25 131 -45 133 -45 2 0 4 8 4 18 0 12 -11 21 -32 27 -31 9
-33 13 -36 63 -3 52 -3 53 32 67 37 16 50 46 19 44 -10 -1 -70 -20 -133 -44z
m50 -65 c0 -22 -1 -40 -2 -40 -2 0 -30 9 -63 19 l-60 19 30 12 c17 7 39 16 50
20 38 16 45 11 45 -30z"/>
<path d="M2820 3604 c0 -95 2 -105 18 -102 13 3 16 12 14 41 -4 42 -15 38 123
42 117 3 115 3 115 20 0 17 6 16 -130 18 l-105 2 -1 33 c-2 50 -3 52 -19 52
-12 0 -15 -18 -15 -106z"/>
<path d="M2962 3467 c-12 -13 -22 -27 -22 -33 0 -5 -10 -22 -23 -38 -18 -22
-28 -27 -45 -22 -19 6 -25 19 -24 56 0 3 3 16 7 28 6 19 4 23 -11 20 -53 -10
-28 -125 31 -140 40 -10 71 12 95 66 35 82 97 63 87 -26 -3 -26 -2 -48 2 -48
18 0 32 30 33 70 1 79 -80 121 -130 67z"/>
<path d="M220 3392 c0 -14 59 -66 67 -59 3 4 -6 21 -22 37 -28 30 -45 38 -45
22z"/>
<path d="M180 3342 c0 -14 59 -66 67 -59 3 4 -6 21 -22 37 -28 30 -45 38 -45
22z"/>
<path d="M3022 3276 c-58 -32 -63 -33 -72 -16 -12 23 -44 34 -76 26 -32 -8
-54 -55 -54 -116 0 -43 3 -50 20 -51 11 0 67 -1 125 -1 132 0 125 -1 125 17 0
16 -3 17 -67 19 -51 1 -56 6 -44 38 6 15 27 33 56 47 44 21 61 39 53 60 -1 6
-31 -5 -66 -23z m-94 -38 c5 -7 12 -28 14 -47 3 -33 2 -34 -33 -36 -52 -4 -63
6 -55 48 4 20 12 38 19 40 22 10 44 7 55 -5z"/>
<path d="M147 3273 c-8 -12 50 -69 60 -59 4 3 -7 20 -24 37 -17 17 -33 27 -36
22z"/>
<path d="M366 3252 c-7 -12 49 -65 64 -60 6 2 -5 18 -23 37 -19 18 -37 29 -41
23z"/>
<path d="M325 3211 c-7 -12 45 -61 64 -61 9 0 2 13 -19 35 -38 39 -37 38 -45
26z"/>
<path d="M110 3168 c0 -22 55 -64 64 -49 3 5 -10 21 -29 35 -22 17 -35 22 -35
14z"/>
<path d="M286 3141 c-3 -5 10 -21 28 -35 19 -14 37 -22 40 -17 3 5 -10 21 -28
35 -19 14 -37 22 -40 17z"/>
<path d="M520 3111 c0 -15 63 -60 74 -54 5 3 -6 19 -25 34 -36 30 -49 35 -49
20z"/>
<path d="M476 3081 c-3 -5 10 -21 28 -35 37 -28 46 -31 46 -17 0 14 -68 62
-74 52z"/>
<path d="M2827 3063 c-4 -3 -7 -39 -7 -79 l0 -72 135 -1 135 -2 0 75 c0 68
-10 99 -28 82 -3 -4 -6 -30 -7 -59 l-1 -52 -46 -3 -46 -3 0 45 c0 25 -3 50 -7
56 -15 24 -25 6 -25 -45 l0 -55 -39 0 -38 0 1 50 c2 47 -12 79 -27 63z"/>
<path d="M256 3051 c-5 -8 5 -18 47 -50 14 -11 17 -11 17 1 0 17 -57 61 -64
49z"/>
<path d="M80 3034 c0 -10 44 -43 58 -44 21 0 13 15 -17 33 -31 18 -41 21 -41
11z"/>
<path d="M436 3021 c-5 -8 5 -19 46 -49 9 -8 19 -9 22 -4 3 6 -10 22 -28 36
-19 14 -37 22 -40 17z"/>
<path d="M686 2991 c-7 -11 62 -56 72 -46 4 4 -2 13 -13 22 -36 26 -54 33 -59
24z"/>
<path d="M635 2960 c-8 -12 65 -54 75 -44 5 5 -8 18 -30 31 -22 12 -42 18 -45
13z"/>
<path d="M226 2933 c-8 -8 56 -52 67 -46 4 2 5 9 2 14 -9 14 -62 39 -69 32z"/>
<path d="M425 2915 c17 -14 37 -25 45 -25 9 0 4 9 -15 25 -16 13 -37 24 -45
24 -9 0 -4 -9 15 -24z"/>
<path d="M596 2912 c-5 -9 51 -52 68 -52 14 0 5 21 -11 27 -10 3 -25 12 -35
20 -10 9 -18 10 -22 5z"/>
<path d="M65 2880 c-4 -6 -5 -12 -4 -14 53 -35 69 -41 69 -27 0 17 -58 52 -65
41z"/>
<path d="M860 2882 c0 -12 67 -45 82 -40 7 3 -5 14 -29 26 -46 24 -53 26 -53
14z"/>
<path d="M2821 2864 c3 -14 30 -28 107 -54 56 -19 102 -37 102 -40 0 -3 -33
-16 -72 -29 -110 -35 -138 -48 -138 -65 0 -22 10 -20 145 28 166 60 166 69 3
126 -68 24 -129 45 -137 48 -8 3 -12 -1 -10 -14z"/>
<path d="M807 2856 c-5 -13 64 -49 74 -39 5 5 -10 18 -31 29 -26 15 -40 18
-43 10z"/>
<path d="M560 2838 c0 -17 61 -51 71 -41 4 4 -10 18 -31 31 -27 15 -40 19 -40
10z"/>
<path d="M377 2833 c-8 -7 42 -43 61 -43 21 0 13 15 -17 33 -33 19 -35 20 -44
10z"/>
<path d="M760 2810 c0 -10 52 -40 70 -40 21 0 9 17 -25 33 -41 20 -45 20 -45
7z"/>
<path d="M210 2786 c0 -7 16 -20 35 -29 26 -13 35 -14 35 -4 0 7 -16 20 -35
29 -25 11 -35 12 -35 4z"/>
<path d="M1050 2786 c19 -18 80 -31 80 -18 0 11 -53 32 -79 32 -13 0 -13 -2
-1 -14z"/>
<path d="M986 2771 c-7 -10 72 -47 81 -38 9 9 3 14 -39 32 -21 8 -39 11 -42 6z"/>
<path d="M725 2749 c-3 -4 12 -17 35 -29 29 -15 40 -17 40 -7 0 15 -68 48 -75
36z"/>
<path d="M536 2742 c-4 -7 53 -42 69 -42 15 0 1 19 -22 31 -16 7 -31 15 -35
17 -3 2 -9 -1 -12 -6z"/>
<path d="M935 2730 c-5 -9 6 -15 62 -35 7 -2 15 0 18 5 4 6 4 10 2 10 -3 0
-21 7 -40 15 -23 9 -38 11 -42 5z"/>
<path d="M1242 2728 c5 -13 63 -31 81 -25 14 4 -17 22 -56 31 -21 5 -28 3 -25
-6z"/>
<path d="M360 2702 c0 -11 66 -42 74 -35 7 8 -44 43 -61 43 -7 0 -13 -4 -13
-8z"/>
<path d="M1170 2701 c0 -5 10 -11 23 -14 12 -3 32 -9 45 -12 35 -11 26 12 -9
24 -39 13 -59 14 -59 2z"/>
<path d="M60 2694 c0 -12 34 -33 53 -34 28 0 19 17 -14 29 -37 13 -39 13 -39
5z"/>
<path d="M1435 2680 c-7 -12 6 -18 53 -26 29 -4 42 -3 42 5 0 6 -3 11 -7 11
-5 0 -25 4 -46 9 -20 5 -39 5 -42 1z"/>
<path d="M895 2671 c-6 -11 60 -35 78 -28 6 3 -5 12 -25 21 -44 19 -45 19 -53
7z"/>
<path d="M702 2659 c2 -6 18 -17 36 -25 27 -11 32 -11 32 1 0 7 -14 18 -31 24
-39 14 -42 14 -37 0z"/>
<path d="M1120 2661 c0 -5 10 -11 23 -14 12 -2 30 -8 40 -12 12 -5 17 -3 17 8
0 8 -13 17 -31 21 -42 8 -49 8 -49 -3z"/>
<path d="M1366 2650 c15 -15 84 -25 84 -13 0 10 -45 23 -78 23 -11 0 -13 -3
-6 -10z"/>
<path d="M1637 2636 c-4 -10 8 -15 40 -20 64 -8 79 9 17 20 -16 2 -34 6 -41 9
-6 2 -14 -2 -16 -9z"/>
<path d="M210 2620 c0 -8 51 -40 65 -40 16 0 1 22 -25 35 -34 18 -40 18 -40 5z"/>
<path d="M520 2621 c0 -13 57 -34 71 -26 7 5 0 13 -21 21 -38 16 -50 17 -50 5z"/>
<path d="M1306 2621 c6 -7 28 -16 48 -21 28 -6 36 -5 36 6 0 8 -6 14 -14 14
-7 0 -29 3 -47 6 -26 5 -31 4 -23 -5z"/>
<path d="M1070 2611 c0 -5 18 -13 40 -19 31 -8 40 -7 40 3 0 7 -14 15 -31 19
-42 8 -49 8 -49 -3z"/>
<path d="M1560 2611 c0 -10 69 -23 83 -14 5 3 3 9 -4 14 -18 11 -79 12 -79 0z"/>
<path d="M865 2600 c-5 -8 47 -30 73 -30 24 0 1 19 -36 29 -17 5 -34 6 -37 1z"/>
<path d="M1840 2603 c0 -11 79 -27 88 -18 10 9 -6 17 -47 22 -24 3 -41 2 -41
-4z"/>
<path d="M1501 2592 c-6 -2 -9 -8 -5 -13 7 -12 84 -12 84 0 0 9 -60 19 -79 13z"/>
<path d="M1754 2589 c-6 -11 6 -17 46 -20 19 -2 37 1 40 6 6 12 -79 25 -86 14z"/>
<path d="M2040 2579 c0 -5 1 -9 3 -10 44 -9 87 -9 87 0 0 6 -8 12 -17 12 -10
1 -30 3 -45 5 -16 1 -28 -1 -28 -7z"/>
<path d="M1255 2572 c16 -16 88 -25 83 -10 -3 7 -24 14 -49 16 -29 2 -41 0
-34 -6z"/>
<path d="M680 2561 c0 -12 41 -31 66 -31 23 0 16 17 -10 24 -13 3 -31 9 -40
12 -9 3 -16 1 -16 -5z"/>
<path d="M1686 2561 c-3 -5 13 -11 37 -13 47 -5 59 -1 37 12 -19 12 -67 13
-74 1z"/>
<path d="M1954 2562 c8 -14 87 -20 83 -7 -2 5 -23 11 -46 13 -26 2 -41 -1 -37
-6z"/>
<path d="M2245 2560 c-4 -7 -24 -10 -51 -7 -26 2 -45 0 -47 -7 -2 -6 -20 -9
-40 -8 -29 3 -37 0 -37 -14 0 -14 -6 -16 -36 -11 -25 4 -34 2 -31 -6 5 -16 83
-16 80 -1 -1 8 12 11 35 10 20 0 36 4 35 9 -1 6 17 9 43 6 29 -2 44 1 44 9 0
8 13 10 44 6 26 -4 47 -2 51 4 3 5 3 10 -2 10 -4 1 -24 3 -44 6 -23 3 -40 1
-44 -6z"/>
<path d="M365 2550 c-4 -6 7 -15 24 -21 34 -12 41 -12 42 -1 1 13 -59 33 -66
22z"/>
<path d="M1040 2551 c0 -14 13 -21 49 -25 28 -3 42 7 24 17 -20 12 -73 18 -73
8z"/>
<path d="M1440 2549 c0 -14 70 -23 83 -10 11 11 11 11 -55 16 -16 1 -28 -2
-28 -6z"/>
<path d="M1876 2541 c-3 -5 14 -11 39 -13 31 -2 45 1 45 9 0 15 -76 18 -84 4z"/>
<path d="M1630 2530 c0 -5 6 -11 13 -11 6 -1 25 -3 40 -5 17 -2 27 1 25 8 -5
14 -78 22 -78 8z"/>
<path d="M1220 2513 c0 -8 12 -13 30 -13 17 0 33 0 37 -1 4 0 9 4 11 9 1 5
-15 12 -38 14 -28 2 -40 0 -40 -9z"/>
<path d="M1815 2521 c-3 -2 -2 -8 1 -12 7 -12 84 -12 84 0 0 9 -77 20 -85 12z"/>
<path d="M2264 2517 c-3 -8 -17 -11 -39 -9 -21 3 -35 0 -35 -7 0 -6 6 -12 13
-13 49 -6 67 -4 67 8 0 9 10 12 28 9 16 -2 35 1 43 6 8 5 12 9 9 10 -43 8 -82
6 -86 -4z"/>
<path d="M850 2504 c0 -8 8 -14 18 -14 9 0 28 -3 42 -6 38 -10 12 14 -28 25
-25 8 -32 7 -32 -5z"/>
<path d="M1400 2500 c0 -11 2 -12 48 -16 22 -1 32 2 29 9 -4 14 -77 20 -77 7z"/>
<path d="M85 2491 c-6 -10 63 -37 72 -28 2 3 -9 13 -26 21 -35 19 -38 19 -46
7z"/>
<path d="M525 2489 c-7 -10 55 -40 68 -32 12 7 -1 20 -33 31 -19 7 -32 7 -35
1z"/>
<path d="M1582 2489 c2 -7 21 -14 42 -15 50 -3 42 19 -8 24 -28 3 -37 0 -34
-9z"/>
<path d="M1760 2481 c0 -13 19 -18 52 -13 42 6 34 22 -12 22 -22 0 -40 -4 -40
-9z"/>
<path d="M1946 2483 c-3 -3 -3 -10 0 -14 7 -12 74 -11 74 1 0 6 -3 11 -7 11
-40 6 -62 7 -67 2z"/>
<path d="M2132 2482 c-27 -9 -9 -22 28 -22 22 0 40 4 40 9 0 10 -50 19 -68 13z"/>
<path d="M1023 2467 c2 -7 20 -15 40 -18 29 -5 37 -3 37 9 0 9 -2 13 -6 10 -3
-3 -21 -2 -40 2 -25 6 -34 5 -31 -3z"/>
<path d="M2845 2470 c3 -5 24 -10 46 -10 21 0 39 5 39 10 0 6 -21 10 -46 10
-27 0 -43 -4 -39 -10z"/>
<path d="M2770 2452 c0 -10 -8 -13 -25 -10 -15 3 -30 -1 -40 -12 -10 -11 -24
-16 -37 -12 -17 4 -20 2 -15 -11 5 -12 1 -17 -13 -17 -10 0 -22 -4 -25 -10 -4
-6 10 -10 35 -10 33 0 41 3 36 15 -4 11 1 15 19 15 14 0 25 5 25 10 0 6 11 10
25 10 14 0 25 5 25 10 0 6 16 10 35 10 19 0 35 5 35 10 0 11 -1 11 -47 14 -23
1 -33 -3 -33 -12z"/>
<path d="M1190 2440 c0 -5 18 -10 40 -10 22 0 40 5 40 10 0 6 -18 10 -40 10
-22 0 -40 -4 -40 -10z"/>
<path d="M1388 2442 c-10 -2 -18 -8 -18 -13 0 -12 67 -12 74 0 7 10 -30 19
-56 13z"/>
<path d="M1545 2439 c-7 -11 5 -16 43 -17 18 0 32 4 32 11 0 13 -68 19 -75 6z"/>
<path d="M1720 2437 c0 -10 12 -14 40 -13 49 1 47 20 -3 24 -27 2 -37 -1 -37
-11z"/>
<path d="M1890 2441 c0 -10 38 -18 63 -13 33 7 17 22 -23 22 -22 0 -40 -4 -40
-9z"/>
<path d="M2070 2440 c0 -5 18 -10 40 -10 22 0 40 5 40 10 0 6 -18 10 -40 10
-22 0 -40 -4 -40 -10z"/>
<path d="M235 2431 c-5 -9 38 -31 60 -31 8 0 15 4 15 8 0 12 -69 32 -75 23z"/>
<path d="M680 2432 c0 -11 69 -27 78 -18 9 10 -4 17 -42 23 -22 3 -36 2 -36
-5z"/>
<path d="M3145 2430 c-3 -5 -20 -10 -36 -10 -18 0 -28 -4 -24 -10 4 -6 -5 -10
-19 -10 -17 0 -26 -5 -26 -16 0 -10 -6 -14 -15 -10 -9 3 -15 0 -15 -8 0 -8 -4
-16 -9 -18 -4 -1 -12 -13 -15 -25 -6 -18 -3 -23 11 -23 15 0 16 -2 3 -10 -22
-14 -5 -23 29 -15 30 6 30 7 15 31 -12 17 -13 24 -4 24 7 0 10 7 7 14 -4 10
-1 13 9 9 8 -3 14 1 14 11 0 9 8 16 20 16 11 0 20 5 20 10 0 6 11 10 25 10 14
0 25 5 25 10 0 6 14 10 31 10 17 0 28 4 24 10 -3 6 -19 10 -35 10 -16 0 -32
-4 -35 -10z"/>
<path d="M2043 2413 c-23 -8 -13 -23 15 -23 26 0 67 18 47 21 -34 5 -51 5 -62
2z"/>
<path d="M2200 2410 c0 -5 15 -10 34 -10 19 0 38 5 41 10 4 6 -10 10 -34 10
-23 0 -41 -4 -41 -10z"/>
<path d="M850 2397 c0 -17 48 -29 69 -17 14 8 12 9 -51 26 -11 3 -18 0 -18 -9z"/>
<path d="M1865 2401 c-13 -12 -2 -19 28 -18 41 3 47 22 7 23 -17 0 -33 -2 -35
-5z"/>
<path d="M1708 2392 c-10 -2 -18 -8 -18 -13 0 -13 73 -5 77 8 4 10 -26 13 -59
5z"/>
<path d="M1553 2382 c-47 -5 -41 -23 7 -20 22 1 40 5 40 9 0 12 -12 15 -47 11z"/>
<path d="M2169 2374 c-11 -13 2 -14 64 -5 4 0 7 5 7 10 0 15 -59 10 -71 -5z"/>
<path d="M390 2371 c0 -13 64 -31 69 -19 4 12 1 15 -36 23 -21 4 -33 3 -33 -4z"/>
<path d="M1015 2370 c-3 -6 2 -10 12 -11 10 0 28 -2 41 -5 13 -2 22 1 22 9 0
15 -66 21 -75 7z"/>
<path d="M2038 2372 c-21 -2 -38 -7 -38 -13 0 -13 67 -11 75 2 9 14 6 15 -37
11z"/>
<path d="M1185 2360 c-3 -5 3 -11 14 -11 12 -1 29 -2 38 -3 9 0 18 5 21 12 5
15 -64 17 -73 2z"/>
<path d="M1350 2360 c0 -5 18 -10 40 -10 22 0 40 5 40 10 0 6 -18 10 -40 10
-22 0 -40 -4 -40 -10z"/>
<path d="M1853 2353 c-7 -3 -13 -9 -13 -13 0 -12 63 -6 70 6 5 9 -35 14 -57 7z"/>
<path d="M2590 2350 c0 -5 16 -10 35 -10 19 0 35 5 35 10 0 6 -16 10 -35 10
-19 0 -35 -4 -35 -10z"/>
<path d="M2175 2343 c-29 -7 -43 -23 -19 -23 30 0 64 11 64 21 0 9 -12 10 -45
2z"/>
<path d="M545 2330 c-3 -5 7 -12 22 -16 15 -3 34 -7 41 -10 13 -4 17 12 5 19
-21 11 -62 16 -68 7z"/>
<path d="M1698 2333 c-29 -7 -20 -24 10 -19 15 2 30 5 35 5 4 1 7 6 7 11 0 10
-21 11 -52 3z"/>
<path d="M2008 2322 c-32 -6 -19 -21 17 -19 19 1 35 7 35 14 0 11 -15 13 -52
5z"/>
<path d="M2313 2322 c-13 -2 -23 -9 -23 -16 0 -16 61 -7 67 10 4 11 -5 12 -44
6z"/>
<path d="M2580 2320 c-8 -5 -11 -12 -8 -15 9 -9 68 5 68 16 0 12 -41 11 -60
-1z"/>
<path d="M1548 2313 c-24 -3 -35 -8 -32 -17 6 -17 74 -8 74 10 0 8 -1 13 -2
12 -2 -1 -20 -3 -40 -5z"/>
<path d="M2441 2302 c-23 -8 -10 -22 17 -18 15 2 30 5 35 5 4 1 7 5 7 11 0 9
-34 10 -59 2z"/>
<path d="M2872 2302 c-18 -2 -30 -8 -27 -13 8 -12 52 -11 60 2 9 14 6 15 -33
11z"/>
<path d="M705 2291 c16 -16 78 -24 73 -9 -3 7 -22 14 -44 16 -26 2 -36 0 -29
-7z"/>
<path d="M1835 2291 c-14 -13 -1 -20 28 -14 48 9 59 24 14 21 -21 -1 -40 -4
-42 -7z"/>
<path d="M2140 2287 c0 -9 11 -12 35 -9 19 2 35 8 35 13 0 5 -16 9 -35 9 -22
0 -35 -5 -35 -13z"/>
<path d="M2593 2293 c-35 -7 -27 -25 10 -21 17 2 31 7 30 13 -2 12 -11 13 -40
8z"/>
<path d="M134 2279 c-3 -5 8 -14 25 -20 34 -12 41 -12 42 -2 1 12 -60 32 -67
22z"/>
<path d="M1354 2279 c-7 -13 9 -17 44 -12 17 3 32 9 32 14 0 11 -69 8 -76 -2z"/>
<path d="M2318 2282 c-16 -2 -28 -9 -28 -17 0 -10 7 -12 31 -5 52 15 49 29 -3
22z"/>
<path d="M2745 2282 c-36 -7 -41 -22 -8 -22 18 0 34 4 38 9 7 13 -6 18 -30 13z"/>
<path d="M866 2272 c-3 -6 12 -12 34 -14 25 -2 39 0 37 7 -5 13 -63 19 -71 7z"/>
<path d="M1208 2273 c-10 -2 -18 -9 -18 -14 0 -13 72 -7 77 6 3 11 -30 15 -59
8z"/>
<path d="M1713 2268 c-18 -5 -33 -13 -33 -19 0 -7 12 -8 33 -4 37 8 40 11 36
23 -3 5 -18 5 -36 0z"/>
<path d="M2008 2272 c-24 -5 -23 -22 1 -22 26 0 51 10 51 20 0 9 -18 9 -52 2z"/>
<path d="M2895 2273 c-33 -8 -44 -26 -12 -21 24 5 27 3 21 -15 -5 -16 -3 -19
11 -14 9 4 23 7 31 7 8 0 14 5 14 10 0 6 -9 10 -20 10 -13 0 -18 5 -14 15 6
15 3 16 -31 8z"/>
<path d="M3052 2271 c-29 -8 -29 -27 1 -23 26 5 30 8 26 20 -2 4 -14 6 -27 3z"/>
<path d="M1030 2260 c0 -5 18 -10 41 -10 24 0 38 4 34 10 -3 6 -22 10 -41 10
-19 0 -34 -4 -34 -10z"/>
<path d="M2446 2261 c-13 -5 -16 -10 -8 -15 14 -8 62 3 62 15 0 11 -27 11 -54
0z"/>
<path d="M2160 2248 c-16 -6 -20 -12 -12 -15 18 -7 62 5 62 17 0 12 -18 12
-50 -2z"/>
<path d="M2587 2248 c-6 -4 -8 -10 -5 -13 9 -9 68 5 68 16 0 10 -45 8 -63 -3z"/>
<path d="M2763 2253 c-33 -6 -28 -23 7 -23 20 0 30 5 30 15 0 8 -3 14 -7 14
-5 -1 -18 -4 -30 -6z"/>
<path d="M1873 2238 c-18 -5 -33 -13 -33 -19 0 -7 12 -8 33 -4 37 8 40 11 36
23 -3 5 -18 5 -36 0z"/>
<path d="M2321 2238 c-25 -7 -31 -12 -22 -21 8 -8 19 -7 43 4 39 19 26 29 -21
17z"/>
<path d="M3070 2241 c-16 -4 -21 -9 -13 -14 15 -9 63 2 63 14 0 10 -14 10 -50
0z"/>
<path d="M1553 2233 c-13 -2 -23 -11 -23 -18 0 -11 7 -12 32 -4 18 5 34 9 35
9 2 0 3 5 3 10 0 10 -8 11 -47 3z"/>
<path d="M286 2221 c13 -14 74 -23 74 -12 0 10 -34 21 -64 21 -13 0 -16 -3
-10 -9z"/>
<path d="M2033 2218 c-18 -5 -33 -13 -33 -19 0 -7 12 -8 33 -4 37 8 40 11 36
23 -3 5 -18 5 -36 0z"/>
<path d="M2461 2221 c-7 -5 -9 -11 -5 -14 13 -8 64 4 64 14 0 11 -41 11 -59 0z"/>
<path d="M2638 2223 c-21 -5 -24 -23 -4 -23 22 0 46 11 46 21 0 9 -13 10 -42
2z"/>
<path d="M2808 2222 c-16 -2 -28 -8 -28 -13 0 -13 47 -11 55 2 9 14 5 15 -27
11z"/>
<path d="M2960 2217 l-25 -10 24 -5 c13 -2 28 1 33 6 15 15 -4 21 -32 9z"/>
<path d="M3357 2213 c-10 -21 0 -38 26 -41 23 -3 27 0 27 22 0 21 -5 26 -24
26 -14 0 -27 -3 -29 -7z"/>
<path d="M1406 2201 c-42 -9 -46 -31 -4 -24 35 5 56 18 41 25 -4 2 -21 2 -37
-1z"/>
<path d="M2181 2199 c-13 -5 -21 -12 -18 -15 8 -9 67 6 67 17 0 11 -18 11 -49
-2z"/>
<path d="M2348 2196 c-31 -11 -37 -26 -10 -25 29 1 52 13 44 25 -5 7 -16 7
-34 0z"/>
<path d="M440 2191 c0 -13 11 -19 43 -25 25 -4 37 7 20 17 -20 11 -63 16 -63
8z"/>
<path d="M1713 2193 c-7 -2 -13 -9 -13 -15 0 -12 50 -2 65 13 10 10 -30 12
-52 2z"/>
<path d="M2513 2193 c-24 -5 -32 -23 -10 -23 26 0 57 13 51 21 -3 5 -8 8 -12
8 -4 -1 -17 -4 -29 -6z"/>
<path d="M2676 2191 c-13 -5 -16 -10 -8 -15 15 -9 63 4 56 15 -6 11 -21 11
-48 0z"/>
<path d="M2837 2188 c-6 -4 -8 -10 -5 -14 9 -9 58 4 58 16 0 10 -35 9 -53 -2z"/>
<path d="M1243 2172 c-28 -4 -31 -22 -4 -22 25 0 51 10 51 19 0 8 -11 9 -47 3z"/>
<path d="M1880 2168 c-16 -6 -20 -12 -12 -15 18 -7 62 5 62 17 0 12 -18 12
-50 -2z"/>
<path d="M590 2160 c0 -13 46 -24 67 -15 16 7 15 9 -7 15 -36 11 -60 11 -60 0z"/>
<path d="M2053 2160 c-13 -5 -23 -14 -23 -21 0 -7 7 -8 18 -4 9 4 25 10 34 12
10 3 15 9 12 14 -6 11 -12 11 -41 -1z"/>
<path d="M2398 2156 c-36 -13 -36 -30 -1 -21 32 8 36 11 32 22 -2 5 -16 4 -31
-1z"/>
<path d="M2562 2159 c-13 -5 -21 -13 -18 -18 8 -12 59 2 64 17 4 14 -13 15
-46 1z"/>
<path d="M2730 2160 c-8 -5 -12 -12 -8 -15 8 -8 58 5 58 16 0 12 -31 11 -50
-1z"/>
<path d="M1078 2152 c-32 -6 -19 -23 17 -20 20 1 35 7 35 14 0 12 -15 14 -52
6z"/>
<path d="M1578 2148 c-27 -9 -39 -28 -19 -28 20 0 61 20 61 30 0 12 -6 12 -42
-2z"/>
<path d="M2204 2145 c-14 -11 -15 -14 -4 -15 26 0 60 12 60 21 0 14 -34 10
-56 -6z"/>
<path d="M750 2140 c0 -5 11 -10 25 -10 14 0 28 0 32 -1 4 0 9 4 11 10 2 7
-11 11 -32 11 -20 0 -36 -4 -36 -10z"/>
<path d="M905 2141 c-3 -6 -1 -12 4 -12 39 -5 61 -3 64 6 3 14 -59 19 -68 6z"/>
<path d="M3544 2131 c-39 -24 -59 -71 -59 -138 1 -112 94 -167 209 -124 18 8
23 15 19 31 -4 15 -11 19 -22 14 -9 -3 -34 -8 -56 -11 -47 -6 -90 21 -97 62
-6 30 6 34 102 34 90 -1 87 -2 84 24 -1 12 -3 30 -3 41 -1 10 -16 33 -35 52
-40 40 -92 46 -142 15z m106 -41 c33 -33 25 -48 -27 -52 -27 -1 -58 -2 -70 0
-22 3 -22 5 -8 32 23 44 71 54 105 20z"/>
<path d="M3876 2129 c-24 -19 -31 -18 -27 4 0 4 -12 7 -29 7 l-30 0 0 -140 0
-140 28 0 28 0 -1 96 c-1 110 8 130 61 140 58 11 68 -7 69 -128 l0 -103 28 -3
27 -3 0 116 c0 115 0 117 -29 146 -36 36 -86 39 -125 8z"/>
<path d="M4402 2138 c-39 -19 -66 -76 -66 -139 0 -94 49 -145 139 -143 65 2
95 17 88 44 -3 11 -6 20 -8 20 -1 0 -16 -5 -34 -11 -64 -22 -123 7 -133 66 -3
19 3 20 77 22 44 0 88 2 98 2 39 2 -3 119 -50 140 -30 14 -81 13 -111 -1z m95
-43 c11 -8 23 -23 26 -34 4 -17 -1 -20 -42 -23 -92 -6 -111 7 -71 50 24 25 57
28 87 7z"/>
<path d="M2628 2133 c-10 -2 -18 -9 -18 -15 0 -6 10 -8 23 -4 12 3 25 6 30 6
4 0 7 5 7 10 0 10 -12 11 -42 3z"/>
<path d="M3355 2003 l0 -138 28 -3 27 -3 0 140 0 141 -27 0 -28 0 0 -137z"/>
<path d="M4090 2120 c0 -22 5 -23 88 -21 38 1 51 -2 46 -11 -4 -6 -38 -51 -75
-100 -37 -48 -66 -96 -65 -105 3 -16 17 -18 109 -21 107 -3 107 -3 107 21 0
23 -3 24 -62 22 -87 -2 -94 2 -65 34 52 57 116 150 121 175 l5 26 -105 0 c-97
0 -104 -1 -104 -20z"/>
<path d="M1753 2120 c-13 -5 -23 -14 -23 -21 0 -7 7 -8 18 -4 9 4 25 10 35 12
19 6 23 23 5 22 -7 0 -23 -4 -35 -9z"/>
<path d="M2453 2123 c-13 -2 -23 -9 -23 -14 0 -15 53 -7 58 9 2 6 0 11 -5 11
-4 -1 -18 -4 -30 -6z"/>
<path d="M1438 2106 c-16 -5 -28 -14 -28 -19 0 -10 50 0 63 13 14 13 -6 17
-35 6z"/>
<path d="M1923 2108 c-23 -11 -31 -28 -13 -28 19 0 59 23 54 31 -6 11 -13 10
-41 -3z"/>
<path d="M2104 2110 c-26 -10 -41 -30 -22 -30 20 1 62 27 52 32 -5 3 -19 2
-30 -2z"/>
<path d="M2268 2113 c-10 -2 -18 -9 -18 -15 0 -6 10 -8 23 -4 12 3 25 6 30 6
4 0 7 5 7 10 0 10 -12 11 -42 3z"/>
<path d="M2518 2093 c-10 -2 -18 -9 -18 -15 0 -6 10 -8 23 -4 12 3 25 6 30 6
4 0 7 5 7 10 0 10 -12 11 -42 3z"/>
<path d="M2343 2077 c-13 -5 -23 -14 -23 -19 0 -10 39 -1 53 12 15 13 -7 18
-30 7z"/>
<path d="M1615 2066 c-18 -7 -25 -15 -18 -19 14 -9 63 9 63 23 0 13 -8 12 -45
-4z"/>
<path d="M1270 2060 c-8 -5 -12 -11 -9 -15 8 -8 69 6 69 16 0 12 -41 11 -60
-1z"/>
<path d="M2158 2059 c-19 -10 -24 -29 -9 -29 5 0 19 9 32 20 26 21 9 28 -23 9z"/>
<path d="M216 2051 c-8 -12 56 -23 68 -11 6 6 6 10 1 11 -6 0 -22 3 -37 5 -14
2 -29 0 -32 -5z"/>
<path d="M1791 2046 c-31 -17 -11 -30 23 -15 27 13 35 29 14 29 -7 -1 -24 -7
-37 -14z"/>
<path d="M1971 2046 c-15 -8 -20 -16 -13 -20 13 -8 52 10 52 24 0 13 -10 12
-39 -4z"/>
<path d="M2414 2046 c-10 -8 -16 -17 -12 -21 7 -7 48 16 48 27 0 12 -14 9 -36
-6z"/>
<path d="M1124 2025 c-18 -14 -17 -15 11 -11 17 2 36 5 43 5 20 1 4 21 -17 21
-9 0 -26 -7 -37 -15z"/>
<path d="M2233 2023 c-23 -16 -30 -33 -14 -33 5 0 19 8 32 18 28 23 12 35 -18
15z"/>
<path d="M360 2021 c0 -14 58 -32 66 -20 8 13 5 15 -33 22 -18 4 -33 3 -33 -2z"/>
<path d="M1478 2013 c-10 -2 -18 -11 -18 -18 0 -11 6 -12 30 -3 54 18 44 36
-12 21z"/>
<path d="M965 2000 c-4 -6 8 -10 29 -10 19 0 38 5 41 10 4 6 -8 10 -29 10 -19
0 -38 -4 -41 -10z"/>
<path d="M2039 1990 c-14 -11 -18 -19 -11 -20 19 0 52 19 52 30 0 16 -16 12
-41 -10z"/>
<path d="M2317 1994 c-15 -8 -25 -19 -22 -25 7 -10 39 4 50 22 11 17 2 18 -28
3z"/>
<path d="M510 1990 c0 -5 16 -10 35 -10 19 0 35 5 35 10 0 6 -16 10 -35 10
-19 0 -35 -4 -35 -10z"/>
<path d="M688 1992 c-40 -5 -34 -22 7 -22 19 0 35 4 35 9 0 14 -11 17 -42 13z"/>
<path d="M830 1990 c-14 -3 -20 -9 -14 -12 14 -9 64 -4 67 7 3 11 -22 13 -53
5z"/>
<path d="M1673 1988 c-20 -10 -32 -28 -19 -28 16 0 56 21 56 30 0 12 -8 12
-37 -2z"/>
<path d="M1857 1984 c-15 -8 -25 -19 -22 -25 6 -9 18 -4 54 19 23 16 -3 21
-32 6z"/>
<path d="M1336 1961 c-13 -5 -16 -10 -8 -15 14 -8 62 3 62 15 0 11 -27 11 -54
0z"/>
<path d="M2124 1956 c-10 -8 -16 -17 -12 -21 8 -8 48 13 48 25 0 14 -13 12
-36 -4z"/>
<path d="M1943 1933 c-22 -15 -31 -33 -15 -33 4 0 18 9 31 19 29 22 15 35 -16
14z"/>
<path d="M1547 1924 c-16 -9 -26 -18 -23 -21 7 -8 66 17 66 28 0 12 -10 11
-43 -7z"/>
<path d="M2216 1925 c-11 -8 -17 -17 -14 -21 8 -8 48 14 48 26 0 14 -12 12
-34 -5z"/>
<path d="M1211 1916 c-39 -14 -31 -27 12 -19 15 3 27 12 27 19 0 8 -1 14 -2
13 -2 0 -19 -6 -37 -13z"/>
<path d="M1743 1918 c-25 -12 -31 -28 -10 -28 14 1 47 24 47 34 0 8 -11 7 -37
-6z"/>
<path d="M2024 1886 c-10 -8 -16 -17 -12 -21 8 -8 48 13 48 25 0 14 -13 12
-36 -4z"/>
<path d="M1071 1876 c-39 -14 -31 -27 12 -19 15 3 27 12 27 19 0 8 -1 14 -2
13 -2 0 -19 -6 -37 -13z"/>
<path d="M1423 1868 c-24 -11 -31 -28 -12 -28 17 0 49 20 49 30 0 12 -9 12
-37 -2z"/>
<path d="M1837 1862 c-27 -16 -36 -32 -18 -32 13 0 57 37 51 43 -3 3 -18 -2
-33 -11z"/>
<path d="M2130 1860 c-14 -10 -22 -22 -18 -25 9 -9 48 17 48 32 0 16 0 16 -30
-7z"/>
<path d="M1640 1855 c-7 -8 -20 -15 -28 -15 -12 0 -13 -3 -5 -11 15 -15 65 11
54 29 -6 10 -10 10 -21 -3z"/>
<path d="M916 1841 c-13 -5 -16 -10 -8 -15 14 -8 62 3 62 15 0 11 -27 11 -54
0z"/>
<path d="M325 1830 c-3 -6 -3 -10 2 -11 4 0 20 -3 36 -5 15 -3 27 0 27 6 0 5
-3 10 -7 11 -5 0 -18 2 -30 5 -12 2 -25 -1 -28 -6z"/>
<path d="M771 1822 c-6 -2 -11 -8 -11 -13 0 -15 63 -6 68 8 3 12 -28 15 -57 5z"/>
<path d="M1926 1811 c-10 -10 -14 -21 -9 -24 10 -7 54 28 46 37 -10 10 -19 7
-37 -13z"/>
<path d="M470 1811 c0 -10 40 -19 58 -13 25 8 11 22 -23 22 -19 0 -35 -4 -35
-9z"/>
<path d="M614 1808 c-6 -9 7 -14 35 -14 13 1 26 6 28 13 5 13 -55 14 -63 1z"/>
<path d="M1293 1808 c-13 -6 -23 -15 -23 -20 0 -14 24 -8 50 12 28 22 11 26
-27 8z"/>
<path d="M1724 1786 c-10 -8 -16 -17 -12 -21 8 -8 48 13 48 25 0 14 -13 12
-36 -4z"/>
<path d="M2036 1784 c-23 -22 -8 -39 15 -18 10 9 19 21 19 26 0 13 -17 9 -34
-8z"/>
<path d="M1506 1775 c-11 -8 -17 -17 -14 -20 7 -8 58 16 58 27 0 13 -23 9 -44
-7z"/>
<path d="M1180 1761 c-14 -4 -26 -14 -28 -23 -3 -16 -1 -16 27 -2 17 9 31 20
31 25 0 5 -1 9 -2 8 -2 -1 -14 -4 -28 -8z"/>
<path d="M1835 1740 c-25 -27 -10 -39 16 -13 12 11 17 23 11 27 -5 3 -17 -3
-27 -14z"/>
<path d="M2369 1748 c0 -7 -1 -98 -2 -203 l0 -190 26 -3 c26 -3 27 -2 27 46 0
31 5 54 14 62 12 9 19 4 41 -30 38 -61 61 -80 96 -80 24 0 30 3 25 16 -3 9 -6
18 -6 20 0 2 -6 4 -14 4 -14 0 -86 104 -86 123 0 5 21 33 46 63 l46 54 -30 0
c-26 0 -39 -10 -79 -61 l-48 -62 -3 127 -3 126 -24 0 c-14 0 -25 -6 -26 -12z"/>
<path d="M3229 1753 c-1 -5 -2 -97 -3 -206 l-1 -197 28 0 c26 0 27 2 27 49 0
30 5 53 15 61 12 10 19 3 46 -39 34 -56 54 -71 94 -71 21 0 26 4 21 16 -3 9
-6 18 -6 20 0 2 -6 4 -14 4 -14 0 -86 105 -86 125 0 5 21 33 45 60 l45 50 -27
3 c-28 4 -31 2 -100 -83 l-33 -40 0 128 0 127 -25 0 c-14 0 -25 -3 -26 -7z"/>
<path d="M3507 1753 c-2 -5 -3 -96 -3 -203 l1 -195 28 -3 c26 -3 27 -2 27 46
0 31 5 54 15 62 12 10 19 3 46 -39 34 -56 54 -71 94 -71 21 0 26 4 21 16 -3 9
-6 18 -6 20 0 2 -6 4 -14 4 -8 0 -32 28 -54 63 l-39 62 49 58 50 57 -31 0
c-25 0 -39 -10 -78 -60 l-48 -59 -3 124 c-3 125 -3 125 -27 125 -13 0 -26 -3
-28 -7z"/>
<path d="M4367 1753 c-3 -7 -2 -375 2 -395 0 -5 12 -8 26 -8 23 0 25 3 25 49
0 77 19 81 66 13 34 -50 44 -57 76 -60 32 -3 36 -1 31 17 -3 12 -11 21 -18 21
-7 0 -31 28 -53 62 l-41 62 51 58 50 58 -31 0 c-25 0 -39 -10 -78 -60 l-48
-59 -3 124 c-3 125 -3 125 -27 125 -13 0 -26 -3 -28 -7z"/>
<path d="M1397 1714 c-15 -8 -25 -19 -22 -25 6 -9 18 -4 54 19 23 16 -3 21
-32 6z"/>
<path d="M1622 1714 c-30 -21 -17 -38 14 -18 23 16 32 34 16 34 -4 0 -18 -7
-30 -16z"/>
<path d="M1953 1713 c-24 -16 -30 -33 -12 -33 14 0 41 28 37 39 -2 5 -13 2
-25 -6z"/>
<path d="M1035 1706 c-18 -7 -25 -15 -18 -19 14 -9 63 9 63 23 0 13 -8 12 -45
-4z"/>
<path d="M903 1670 c-19 -8 -33 -30 -19 -30 18 0 65 24 60 31 -6 11 -12 11
-41 -1z"/>
<path d="M1737 1662 c-10 -10 -14 -22 -10 -25 7 -8 43 21 43 35 0 14 -16 9
-33 -10z"/>
<path d="M1283 1650 c-19 -8 -33 -30 -18 -30 12 0 55 24 55 32 0 10 -8 9 -37
-2z"/>
<path d="M1522 1645 c-21 -16 -30 -35 -14 -35 15 1 44 29 40 40 -2 6 -11 5
-26 -5z"/>
<path d="M768 1643 c-32 -5 -38 -23 -9 -23 26 0 51 10 51 21 0 5 -3 8 -7 8 -5
-1 -20 -4 -35 -6z"/>
<path d="M1866 1635 c-10 -8 -16 -19 -14 -25 2 -8 12 -5 27 8 28 21 16 37 -13
17z"/>
<path d="M2667 1620 c-40 -32 -57 -72 -57 -133 0 -116 97 -182 188 -127 37 23
69 83 66 127 -1 15 -2 38 -3 51 0 12 -16 39 -34 58 -28 30 -42 37 -83 41 -40
4 -54 1 -77 -17z m119 -51 c24 -27 30 -99 10 -137 -32 -62 -107 -52 -125 15
-29 108 51 193 115 122z"/>
<path d="M2976 1619 c-78 -62 -78 -204 0 -256 43 -28 175 -17 174 15 -1 25
-17 31 -52 20 -20 -6 -47 -8 -62 -4 -34 8 -66 44 -66 73 0 20 5 23 38 22 20
-1 63 -1 95 0 55 1 57 2 57 29 0 39 -31 95 -60 109 -38 19 -94 16 -124 -8z
m109 -44 c33 -32 31 -43 -7 -47 -51 -5 -108 3 -108 15 0 20 43 57 67 57 13 0
35 -11 48 -25z"/>
<path d="M3808 1623 c-16 -10 -35 -32 -44 -51 -17 -37 -20 -115 -6 -152 37
-95 173 -103 225 -13 34 60 24 153 -22 197 -38 37 -112 46 -153 19z m127 -73
c26 -49 12 -130 -25 -150 -55 -30 -99 2 -106 77 -11 108 85 162 131 73z"/>
<path d="M4118 1622 c-80 -49 -81 -207 -2 -258 43 -29 175 -18 174 14 -1 24
-18 32 -44 22 -44 -17 -81 -12 -110 15 -14 13 -26 35 -26 49 0 20 5 25 28 24
15 0 58 0 95 1 l69 1 -6 40 c-3 22 -12 50 -21 63 -30 47 -106 61 -157 29z
m106 -42 c31 -36 27 -48 -17 -52 -94 -7 -117 7 -76 50 23 26 72 27 93 2z"/>
<path d="M468 1619 c-7 -5 -8 -9 -3 -10 52 -7 65 -7 65 0 0 12 -46 19 -62 10z"/>
<path d="M610 1617 c0 -9 10 -12 30 -9 17 2 30 8 30 13 0 5 -13 9 -30 9 -18 0
-30 -5 -30 -13z"/>
<path d="M1645 1590 c-25 -27 -10 -39 16 -13 12 11 17 23 11 27 -5 3 -17 -3
-27 -14z"/>
<path d="M1156 1585 c-11 -8 -17 -17 -14 -20 7 -8 58 16 58 27 0 13 -23 9 -44
-7z"/>
<path d="M1406 1565 c-11 -8 -16 -18 -13 -22 8 -8 57 17 57 29 0 13 -23 9 -44
-7z"/>
<path d="M1775 1550 c-10 -11 -16 -22 -14 -25 7 -6 49 24 49 36 0 15 -16 10
-35 -11z"/>
<path d="M1043 1538 c-24 -11 -31 -28 -12 -28 17 0 49 20 49 30 0 12 -9 12
-37 -2z"/>
<path d="M1551 1511 c-13 -10 -20 -21 -15 -24 5 -3 20 3 33 12 13 10 20 21 15
24 -5 3 -20 -3 -33 -12z"/>
<path d="M1310 1500 c-14 -10 -22 -22 -18 -25 9 -9 48 17 48 32 0 16 0 16 -30
-7z"/>
<path d="M908 1489 c-30 -17 -20 -28 17 -17 19 6 32 15 29 20 -7 11 -25 10
-46 -3z"/>
<path d="M1695 1480 c-10 -11 -16 -22 -13 -25 8 -9 36 5 42 20 9 23 -10 26
-29 5z"/>
<path d="M773 1453 c-25 -9 -13 -23 15 -17 37 9 52 24 22 23 -14 0 -31 -3 -37
-6z"/>
<path d="M1196 1431 c-15 -10 -24 -21 -19 -24 5 -3 22 2 37 12 15 10 24 21 19
24 -5 3 -22 -2 -37 -12z"/>
<path d="M1456 1435 c-23 -17 -13 -34 11 -19 19 12 29 34 16 34 -4 0 -17 -7
-27 -15z"/>
<path d="M653 1432 c-13 -2 -23 -8 -23 -13 0 -11 27 -11 54 0 24 9 2 19 -31
13z"/>
<path d="M541 1421 c-10 -6 -10 -10 -1 -16 13 -8 24 -1 19 14 -3 6 -10 7 -18
2z"/>
<path d="M1611 1396 c-19 -20 -21 -26 -9 -26 19 0 41 25 36 40 -2 6 -14 0 -27
-14z"/>
<path d="M1093 1376 c-33 -16 -31 -39 2 -24 14 6 25 17 25 25 0 7 -1 12 -2 12
-2 -1 -13 -6 -25 -13z"/>
<path d="M1361 1361 c-14 -11 -19 -21 -13 -25 5 -3 20 2 33 12 29 24 11 36
-20 13z"/>
<path d="M973 1320 c-19 -8 -33 -30 -18 -30 12 0 55 24 55 32 0 10 -8 9 -37
-2z"/>
<path d="M1515 1310 c-15 -16 -15 -20 -3 -20 8 0 23 9 33 20 15 16 15 20 3 20
-8 0 -23 -9 -33 -20z"/>
<path d="M1257 1286 c-10 -8 -14 -17 -9 -20 6 -3 21 3 33 14 28 23 5 28 -24 6z"/>
<path d="M861 1280 c-14 -3 -26 -11 -29 -18 -3 -9 4 -11 25 -6 33 8 36 10 32
22 -2 4 -15 6 -28 2z"/>
<path d="M1439 1241 c-25 -20 -23 -36 4 -25 15 5 31 33 24 41 -2 2 -15 -5 -28
-16z"/>
<path d="M716 1241 c-13 -5 -16 -10 -8 -15 14 -8 62 3 62 15 0 11 -27 11 -54
0z"/>
<path d="M1160 1219 c-18 -13 -20 -19 -9 -19 21 0 54 25 43 33 -5 3 -21 -3
-34 -14z"/>
<path d="M1353 1171 c-12 -10 -18 -23 -14 -30 5 -8 13 -6 25 8 25 27 16 44
-11 22z"/>
<path d="M1057 1164 c-15 -8 -25 -19 -22 -24 7 -11 55 12 55 28 0 15 2 15 -33
-4z"/>
<path d="M943 1113 c-7 -2 -13 -11 -13 -19 0 -16 42 -4 48 14 4 12 -13 15 -35
5z"/>
<path d="M1257 1092 c-10 -10 -14 -22 -10 -25 7 -8 43 21 43 35 0 14 -16 9
-33 -10z"/>
<path d="M838 1068 c-33 -12 -38 -32 -5 -23 24 8 43 22 36 28 -2 3 -16 0 -31
-5z"/>
<path d="M706 1031 c-11 -4 -15 -10 -10 -13 14 -9 65 3 58 13 -6 11 -22 11
-48 0z"/>
<path d="M1164 1026 c-10 -8 -16 -17 -12 -21 8 -8 48 13 48 25 0 14 -13 12
-36 -4z"/>
<path d="M1066 965 c-11 -8 -17 -17 -14 -20 8 -9 58 17 52 26 -7 12 -16 11
-38 -6z"/>
<path d="M973 918 c-33 -16 -31 -41 2 -26 14 6 25 17 25 25 0 7 -1 13 -2 12
-2 0 -13 -5 -25 -11z"/>
<path d="M863 869 c-13 -5 -23 -13 -23 -19 0 -12 38 -4 53 10 14 12 -6 18 -30
9z"/>
<path d="M753 833 c-25 -5 -32 -23 -9 -23 22 0 46 11 46 21 0 5 -3 8 -7 8 -5
-1 -18 -4 -30 -6z"/>
</g>
</svg>
